<?xml version="1.0" standalone="no"?>
<!DOCTYPE svg PUBLIC "-//W3C//DTD SVG 1.1//EN" "http://www.w3.org/Graphics/SVG/1.1/DTD/svg11.dtd" >
<!--
2017-9-5: Created with FontForge (http://fontforge.org)
-->
<svg xmlns="http://www.w3.org/2000/svg" xmlns:xlink="http://www.w3.org/1999/xlink" version="1.1">
<metadata>
Created by FontForge 20161116 at Tue Sep  5 15:05:58 2017
 By Xinhai Zeng
Copyright (c) 2017, Xinhai Zeng
</metadata>
<defs>
<font id="Ionicons" horiz-adv-x="448" >
  <font-face 
    font-family="Ionicons"
    font-weight="400"
    font-stretch="normal"
    units-per-em="512"
    panose-1="2 0 5 3 0 0 0 0 0 0"
    ascent="448"
    descent="-64"
    bbox="-0.484021 -64 512 448.041"
    underline-thickness="25.6"
    underline-position="-51.2"
    unicode-range="U+F100-F4C4"
  />
    <missing-glyph />
    <glyph glyph-name="ion-alert-circled" unicode="&#xf100;" 
d="M445 26c3 -5 5 -13 2 -18s-8 -8 -14 -8h-418c-6 0 -11 3 -14 8s-1 13 2 18l207 349c3 5 8 9 14 9s11 -4 14 -9zM256 48v48h-64v-48h64zM256 128v144h-64v-144h64z" />
    <glyph glyph-name="ion-android-close" unicode="&#xf2d7;" horiz-adv-x="298" 
d="M298 311l-119 -119l119 -119l-30 -30l-119 119l-119 -119l-30 30l119 119l-119 119l30 30l119 -119l119 119z" />
    <glyph glyph-name="ion-android-more-vertical" unicode="&#xf397;" horiz-adv-x="80" 
d="M80 312c0 -22 -18 -40 -40 -40s-40 18 -40 40s18 40 40 40s40 -18 40 -40zM80 72c0 -22 -18 -40 -40 -40s-40 18 -40 40s18 40 40 40s40 -18 40 -40zM80 192c0 -22 -18 -40 -40 -40s-40 18 -40 40s18 40 40 40s40 -18 40 -40z" />
    <glyph glyph-name="ion-back" unicode="&#xf138;" horiz-adv-x="304" 
d="M103 189l197 -199c5 -5 5 -12 0 -15l-35 -35c-5 -5 -13 -5 -18 0l-243 244c-5 5 -5 13 0 18l240 242c5 5 13 5 18 0l36 -35c5 -5 5 -13 0 -18z" />
    <glyph glyph-name="ion-cancel" unicode="&#xf13b;" horiz-adv-x="493" 
d="M23 416l-23 -23l448 -448l23 23l22 23l-448 448zM23 416l448 -448zM23 -32l22 -23l448 448l-22 23l-23 23l-448 -448zM23 -32l448 448z" />
    <glyph glyph-name="ion-check-mark" unicode="&#xf13c;" horiz-adv-x="497" 
d="M477 421l-19 19l-296 -304l-123 127l-20 -18l-19 -19l143 -147l19 -20l20 20l315 323z" />
    <glyph glyph-name="ion-chevron-down" unicode="&#xf123;" 
d="M224 150v0v0l174 167c4 4 12 4 16 0l31 -30c4 -4 4 -12 0 -16l-213 -204c-2 -2 -5 -3 -8 -3s-6 1 -8 3l-213 204c-4 4 -4 12 0 16l31 30c4 4 12 4 16 0z" />
    <glyph glyph-name="ion-chevron-up" unicode="&#xf126;" 
d="M224 234l-174 -167c-4 -4 -12 -4 -16 0l-31 30c-4 4 -4 12 0 16l213 204c2 2 5 3 8 3s6 -1 8 -3l213 -204c4 -4 4 -12 0 -16l-31 -30c-4 -4 -12 -4 -16 0l-174 167v0v0z" />
    <glyph glyph-name="ion-close-circled" unicode="&#xf128;" 
d="M224 415c124 0 224 -100 224 -224s-100 -224 -224 -224s-224 100 -224 224s100 224 224 224zM332 116l-75 75l76 75c3 3 3 9 0 12l-22 21c-2 2 -4 3 -6 3s-3 -1 -5 -3l-76 -74l-76 74c-2 2 -3 3 -5 3s-4 -1 -6 -3l-21 -21c-3 -3 -3 -9 0 -12l76 -75l-76 -76
c-2 -1 -2 -3 -2 -5s0 -4 2 -6l21 -22c2 -2 4 -2 6 -2s4 0 6 2l75 76l76 -75c2 -2 3 -3 5 -3s4 1 6 3l21 21c2 1 3 4 3 6s-1 4 -3 6z" />
    <glyph glyph-name="ion-done" unicode="&#xf145;" horiz-adv-x="512" 
d="M256 -64c141 0 256 115 256 256s-115 256 -256 256s-256 -115 -256 -256s115 -256 256 -256zM116 203l-18 -19l115 -110l20 -18l18 20l201 218l-20 18l-19 18l-183 -198l-95 91z" />
    <glyph glyph-name="ion-edit" unicode="&#xf2bf;" 
d="M381 259l-250 -251l-91 91l251 250zM440 360c12 -12 11 -32 -2 -45l-45 -45l-91 91l45 45c13 13 33 14 45 2zM32 85l85 -85l-117 -32z" />
    <glyph glyph-name="ion-information-circled" unicode="&#xf149;" 
d="M448 195c2 -124 -97 -225 -221 -227s-225 97 -227 221s97 225 221 227s225 -97 227 -221zM224 336c-18 0 -32 -14 -32 -32s14 -32 32 -32s32 14 32 32s-14 32 -32 32zM268 53v11h-22v172h-66v-12h22v-160h-22v-11h88z" />
    <glyph glyph-name="ion-invite-gift" unicode="&#xf146;" horiz-adv-x="496" 
d="M269 290v0v-70h218v0h9v81h-135c58 38 91 122 18 138c-82 18 -118 -79 -130 -121c-12 42 -48 139 -130 121c-73 -16 -40 -100 18 -138h-137v-81h13v0h214v69v0v14c-24 1 -60 3 -78 21c-40 39 -33 58 0 58c42 0 60 -50 80 -78h40v0c20 28 38 78 80 78c33 0 40 -19 0 -58
c-19 -18 -56 -20 -80 -21v-13zM227 198h-198v-260h437v260h-197v-260h-42v260z" />
    <glyph glyph-name="ion-ios-checkmark" unicode="&#xf3ff;" horiz-adv-x="416" 
d="M208 400c115 0 208 -93 208 -208s-93 -208 -208 -208s-208 93 -208 208s93 208 208 208zM176 118l134 135l-18 18l-125 -126l-47 47l-18 -18l56 -56c2 -2 6 -4 9 -4s7 2 9 4z" />
    <glyph glyph-name="ion-ios-close-outline" unicode="&#xf405;" horiz-adv-x="416" 
d="M355 339c81 -81 81 -213 0 -294s-213 -81 -294 0s-81 213 0 294s213 81 294 0zM343 57c74 74 74 196 0 270s-196 74 -270 0s-74 -196 0 -270s196 -74 270 0zM292 288l12 -12l-84 -84l84 -84l-12 -12l-84 84l-84 -84l-12 12l84 84l-84 84l12 12l84 -84z" />
    <glyph glyph-name="ion-ios-help-outline" unicode="&#xf445;" horiz-adv-x="416" 
d="M208 400c115 0 208 -93 208 -208s-93 -208 -208 -208s-208 93 -208 208s93 208 208 208zM208 1c105 0 191 86 191 191s-86 191 -191 191s-191 -86 -191 -191s86 -191 191 -191zM212 302c33 0 60 -21 60 -55c0 -22 -11 -36 -26 -50c-23 -23 -22 -27 -23 -53h-19
c1 28 7 43 30 64c11 10 19 23 19 38c0 24 -19 40 -42 40c-32 0 -49 -16 -48 -46h-19c0 42 25 62 68 62zM212 116c9 0 17 -8 17 -17s-8 -17 -17 -17s-17 8 -17 17s8 17 17 17z" />
    <glyph glyph-name="ion-ios-more" unicode="&#xf46a;" horiz-adv-x="320" 
d="M160 224v0c18 0 32 -14 32 -32s-14 -32 -32 -32s-32 14 -32 32s14 32 32 32zM32 224v0c18 0 32 -14 32 -32s-14 -32 -32 -32s-32 14 -32 32s14 32 32 32zM288 224v0c18 0 32 -14 32 -32s-14 -32 -32 -32s-32 14 -32 32s14 32 32 32z" />
    <glyph glyph-name="ion-ios-trash-outline" unicode="&#xf4c4;" horiz-adv-x="288" 
d="M288 335v-15h-20l-24 -291c0 -16 -13 -29 -29 -29h-141c-16 0 -29 13 -29 29l-24 291h-21v15h80v20c0 16 13 29 29 29h70c16 0 29 -13 29 -29v-20h80zM95 355v-20h98v20c0 8 -6 14 -14 14h-70c-8 0 -14 -6 -14 -14zM230 30l23 290h-217l23 -290v0v-1c0 -8 7 -14 15 -14
h141c8 0 15 6 15 14v1v0zM137 47v241h14v-241h-14zM208 288l-11 -241h-14l10 241h15zM94 288l11 -241h-14l-11 241h14z" />
    <glyph glyph-name="ion-message-bell" unicode="&#xf14c;" horiz-adv-x="511" 
d="M78 168c0 -80 -10 -89 -43 -129l-35 -42l54 10c41 8 364 9 395 1l62 -17l-42 49c-34 39 -43 58 -43 117l1 54c-5 126 -76 190 -174 190s-175 -77 -175 -173v-60zM117 168v60c0 74 59 133 136 133c74 0 134 -60 134 -134v0v0v-70c0 -46 11 -84 24 -106
c-81 4 -242 3 -318 -1c20 34 24 61 24 118zM288 393h19c0 31 -25 55 -55 55s-55 -24 -55 -55h20h19c0 9 7 16 16 16s16 -7 16 -16h20zM193 15h-20c0 -44 35 -79 79 -79s79 35 79 79h-19h-20c0 -22 -18 -40 -40 -40s-40 18 -40 40h-19z" />
    <glyph glyph-name="ion-message-order" unicode="&#xf14d;" horiz-adv-x="512" 
d="M492 192h20c0 141 -115 256 -256 256s-256 -115 -256 -256s115 -256 256 -256v20v21c-119 0 -215 96 -215 215s96 215 215 215s215 -96 215 -215h21zM253 351l-24 -171l33 -23l32 23l-22 171h-19zM218 262l-18 -146l25 -20l26 20l-18 146h-15zM283 65l-18 -11l63 -96
l15 -22l17 20l140 158l-16 14l-15 13l-122 -138l-47 73z" />
    <glyph glyph-name="ion-minus" unicode="&#xf209;" horiz-adv-x="384" 
d="M0 160v64h384v-64h-384z" />
    <glyph glyph-name="ion-photo" unicode="&#xf14e;" horiz-adv-x="512" 
d="M389 388l-10 8l-7 2l-15 23c-10 15 -34 27 -52 27h-98c-18 0 -42 -12 -52 -27l-15 -24l-7 -1l-10 -8h-101c-17 0 -22 -13 -22 -30v-260c0 -17 14 -30 31 -30h450c17 0 31 13 31 30v260c0 17 -7 30 -24 30h-99zM256 112c-65 0 -117 53 -117 118s52 117 117 117
s117 -52 117 -117s-52 -118 -117 -118v0zM398 321c-7 0 -12 6 -12 13s5 13 12 13s13 -6 13 -13s-6 -13 -13 -13v0zM107 429h-50v-25h50v25v0zM256 321c-51 0 -92 -40 -92 -91s41 -92 92 -92s92 41 92 92s-41 91 -92 91v0z" />
    <glyph glyph-name="ion-plus" unicode="&#xf218;" horiz-adv-x="384" 
d="M384 224v-64h-160v-160h-64v160h-160v64h160v160h64v-160h160z" />
    <glyph glyph-name="ion-safe-gurad" unicode="&#xf14f;" horiz-adv-x="421" 
d="M210 448l-210 -73v-170c0 -73 22 -128 71 -179s140 -90 140 -90v0c6 2 92 41 139 90c49 51 71 106 71 179v170l-211 73v0v0v0zM95 236l-18 -18l94 -94l18 -18l18 18l143 144l-18 18l-18 18l-125 -125l-76 75z" />
    <glyph glyph-name="ion-search" unicode="&#xf21f;" horiz-adv-x="487" 
d="M50 242c0 82 66 148 148 148s149 -66 149 -148s-67 -149 -149 -149s-148 67 -148 149zM0 242c0 -109 89 -199 198 -199s198 90 198 199s-89 198 -198 198s-198 -89 -198 -198zM338 102l-24 -23l127 -127l23 24l23 23l-126 127z" />
    <glyph glyph-name="ion-support-person" unicode="&#xf150;" horiz-adv-x="403" 
d="M292 186c-17 -5 -34 -8 -47 -16c-21 -13 -42 -6 -63 -6c-4 0 -12 9 -12 14s7 15 12 15c17 2 34 3 51 0c9 -2 18 -2 26 1c14 6 28 13 41 20c3 2 6 6 7 9c2 15 5 29 6 44c0 3 -4 8 -7 8c-38 7 -65 30 -91 57c-3 4 -7 8 -9 10c-22 -11 -43 -21 -63 -31
c-14 -7 -28 -15 -41 -23c-4 -3 -9 -8 -9 -13c-2 -35 6 -68 25 -97c45 -69 136 -66 174 8zM351 108c21 11 6 26 0 54c-4 19 -4 38 -5 57c-1 11 -2 20 -2 31c-1 35 3 72 -9 106c-16 47 -49 77 -97 91c-7 2 -16 1 -23 -2c-9 -4 -17 -3 -26 0c-7 3 -16 4 -23 2
c-51 -11 -98 -66 -102 -117c-4 -50 -6 -100 -8 -150c-2 -38 -29 -65 -9 -72c71 38 97 -4 98 0c3 8 3 18 5 28c35 -20 69 -20 104 -1c1 -8 2 -14 3 -20c1 -11 41 4 55 4zM129 83c-2 0 -46 -8 -75 -17c-13 -4 -28 -14 -38 -27c-22 -29 -23 -31 5 -53c2 -1 3 -2 5 -3
c49 -26 100 -41 153 -46c63 -5 124 12 183 38c13 6 25 17 37 27c5 4 5 10 2 17c-12 28 -32 43 -55 49c-26 7 -53 13 -80 19c-4 1 -1 -29 -21 -48c-18 -18 -38 -36 -66 -20c-20 11 -50 43 -41 68z" />
  </font>
</defs>
</svg>
