<?xml version="1.0" encoding="UTF-8" standalone="no"?>
<svg width="52px" height="53px" viewBox="0 0 52 53" version="1.1" xmlns="http://www.w3.org/2000/svg" xmlns:xlink="http://www.w3.org/1999/xlink">
    <!-- Generator: Sketch 3.7.2 (28276) - http://www.bohemiancoding.com/sketch -->
    <title>Path 544</title>
    <desc>Created with Sketch.</desc>
    <defs></defs>
    <g id="Page-1" stroke="none" stroke-width="1" fill="none" fill-rule="evenodd">
        <g id="homepage-copy" transform="translate(-349.000000, -495.000000)" fill="#FFFFFF">
            <path d="M376.82342,511.378944 C376.823771,511.379074 376.824121,511.379205 376.824472,511.379335 L376.824472,518.563971 L399.450732,518.563971 L399.450732,518.584977 L400.30137,518.584977 L400.30137,510.241053 L386.382727,510.241053 C392.362838,506.283226 395.775793,497.578128 388.239391,495.920789 C379.723053,494.047951 375.967027,504.105441 374.756661,508.457036 C373.546296,504.105441 369.79027,494.047951 361.273932,495.920789 C353.737529,497.578128 357.150485,506.283226 363.130595,510.241053 L349,510.241053 L349,518.584977 L350.380057,518.584977 L350.380057,518.563971 L372.476898,518.563971 L372.476898,511.457828 C372.477749,511.457515 372.478599,511.457201 372.479449,511.456887 L372.479449,509.974558 C369.95275,509.900362 366.270608,509.63809 364.39399,507.801491 C360.296583,503.791463 361.01587,501.827066 364.393989,501.827066 C368.76341,501.827066 370.618503,507.051511 372.685692,509.944763 L376.82342,509.944763 L376.82342,509.950652 C378.892302,507.058608 380.746946,501.827066 385.119333,501.827066 C388.497453,501.827066 389.21674,503.791463 385.119333,507.801491 C383.189917,509.689762 379.351953,509.913874 376.82342,509.980405 L376.82342,511.378944 Z M372.476898,520.923811 L352.037178,520.923811 L352.037178,547.746479 L397.264192,547.746479 L397.264192,520.923811 L376.824472,520.923811 L376.824472,547.746479 L372.476898,547.746479 L372.476898,520.923811 Z" id="Path-544"></path>
        </g>
    </g>
</svg>