<?xml version="1.0" encoding="UTF-8" standalone="no"?>
<svg width="93px" height="69px" viewBox="0 0 93 69" version="1.1" xmlns="http://www.w3.org/2000/svg" xmlns:xlink="http://www.w3.org/1999/xlink">
    <!-- Generator: Sketch 3.7.2 (28276) - http://www.bohemiancoding.com/sketch -->
    <title>Camera icon</title>
    <desc>Created with Sketch.</desc>
    <defs></defs>
    <g id="Page-1" stroke="none" stroke-width="1" fill="none" fill-rule="evenodd">
        <g id="upload-card-01" transform="translate(-325.000000, -404.000000)" fill="#FFFFFF">
            <path d="M395.593018,414.894737 L393.82,413.394737 L392.551763,413.037598 L389.76381,408.95507 C387.894983,406.218461 383.68651,404 380.375528,404 L362.624472,404 C359.308293,404 355.100841,406.224575 353.2342,408.957983 L350.344354,413.189719 L349.18,413.394737 L347.41394,414.894737 L329.08,414.894737 C325.99798,414.894737 325,417.333342 325,420.342105 L325,467.552632 C325,470.561395 327.49798,473 330.58,473 L412.42,473 C415.50202,473 418,470.561395 418,467.552632 L418,420.342105 C418,417.333342 416.64202,414.894737 413.56,414.894737 L395.593018,414.894737 Z M371.5,464.95 C359.747392,464.95 350.259259,455.447167 350.259259,443.675 C350.259259,431.904606 359.747392,422.4 371.5,422.4 C383.252608,422.4 392.740741,431.902833 392.740741,443.675 C392.740741,455.447167 383.252608,464.95 371.5,464.95 L371.5,464.95 Z M397.333333,427 C396.065778,427 395.037037,425.9696 395.037037,424.7 C395.037037,423.4304 396.065778,422.4 397.333333,422.4 C398.600889,422.4 399.62963,423.4304 399.62963,424.7 C399.62963,425.9696 398.600889,427 397.333333,427 L397.333333,427 Z M344.518519,407.45 L335.333333,407.45 L335.333333,412.05 L344.518519,412.05 L344.518519,407.45 L344.518519,407.45 Z M371.499076,427 C362.289855,427 354.851852,434.447592 354.851852,443.674073 C354.851852,452.902408 362.288006,460.35 371.499076,460.35 C380.710145,460.35 388.148148,452.900553 388.148148,443.674073 C388.148148,434.447592 380.711994,427 371.499076,427 L371.499076,427 Z" id="Camera-icon"></path>
        </g>
    </g>
</svg>