<?xml version="1.0" encoding="UTF-8" standalone="no"?>
<svg width="48px" height="61px" viewBox="0 0 48 61" version="1.1" xmlns="http://www.w3.org/2000/svg" xmlns:xlink="http://www.w3.org/1999/xlink">
    <!-- Generator: Sketch 3.7.2 (28276) - http://www.bohemiancoding.com/sketch -->
    <title>Page 1</title>
    <desc>Created with Sketch.</desc>
    <defs>
        <polyline id="path-1" points="0 0.0230646766 61.9647451 0.0230646766 61.9647451 61 0 61"></polyline>
        <polyline id="path-3" points="0 0.0230646766 61.9647451 0.0230646766 61.9647451 61 0 61"></polyline>
    </defs>
    <g id="Page-1" stroke="none" stroke-width="1" fill="none" fill-rule="evenodd">
        <g id="homepage-copy" transform="translate(-581.000000, -490.000000)">
            <g id="Page-1" transform="translate(574.000000, 490.000000)">
                <g id="Group-3">
                    <mask id="mask-2" fill="white">
                        <use xlink:href="#path-1"></use>
                    </mask>
                    <g id="Clip-2"></g>
                    <path d="M41.7451775,31.1878736 C39.7523637,31.8288289 37.7233833,32.0767741 36.1764225,33.0718935 C33.7119225,34.6569831 31.1902853,33.8776398 28.6963049,33.8509333 C28.1705206,33.8454706 27.2648343,32.7511124 27.2472069,32.1383811 C27.2298833,31.529595 28.0632363,30.4124756 28.6075598,30.3581522 C30.6535598,30.1539085 32.7852657,30.0261423 34.7817265,30.4073164 C35.8977265,30.6206647 36.8508245,30.6953214 37.8078735,30.2841025 C39.4764029,29.5675801 41.1093735,28.7603164 42.7152951,27.9117791 C43.1046186,27.7060179 43.5270696,27.2234806 43.5957559,26.8119582 C43.8853931,25.0745204 44.0929716,23.3188736 44.2157559,21.5620129 C44.2388539,21.2336448 43.7835794,20.6175751 43.4693245,20.5586995 C38.9421088,19.71259 35.640001,16.950595 32.5965304,13.762207 C32.191099,13.3376348 31.7917461,12.906993 31.5592461,12.6593512 C28.8984127,13.9485453 26.4354324,15.1054209 24.007099,16.3308836 C22.3376578,17.1733512 20.6761186,18.0470776 19.09755,19.0434109 C18.6033735,19.3550876 18.1283441,20.0940677 18.0909618,20.6664358 C17.8207755,24.8186846 18.7957559,28.6877841 21.0681775,32.1978637 C26.3837657,40.4073711 37.1966873,39.9600378 41.7451775,31.1878736 M44.098146,39.1435549 C42.4580093,39.1435549 37.7853833,41.054396 37.6534814,39.6920627 C37.5820598,38.9549035 37.4042657,38.2283662 37.2444029,37.3270229 C33.0481578,39.6204408 28.9771284,39.5457841 24.8276873,37.1989532 C24.6380402,38.413794 24.5830304,39.4784109 24.2724225,40.4629085 C24.111648,40.9724557 21.0927737,35.9364664 12.6123047,40.4629099 C10.1743165,39.6674807 13.4573735,36.4532965 13.64155,31.8795104 C13.8810402,25.9273065 14.1469716,19.9729781 14.5846186,14.0332169 C15.0341186,7.93200299 20.7286971,1.50333134 26.7496873,0.150102488 C27.6307559,-0.0477681592 28.6944814,0.0426696517 29.5436382,0.354042786 C30.6143539,0.746749254 31.493599,0.805624876 32.5801186,0.37801791 C33.4198539,0.0478288557 34.5176186,-0.0984497512 35.3676873,0.14221194 C41.0519324,1.7515801 44.994099,5.34299303 46.9486186,10.938605 C48.3800892,15.0365303 47.8494422,19.338396 48.0169029,23.5646945 C48.0667461,24.8192915 48.133001,26.0738886 48.2256971,27.3260577 C48.3934618,29.5912517 48.3740108,31.8971124 48.8195598,34.10859 C49.4805892,37.3898438 51.3198257,39.1435549 48.8195586,40.4629099" id="Fill-1" fill="#FFFFFF" mask="url(#mask-2)"></path>
                </g>
                <g id="Group-6">
                    <mask id="mask-4" fill="white">
                        <use xlink:href="#path-3"></use>
                    </mask>
                    <g id="Clip-5"></g>
                    <path d="M23.4287109,43.0315547 C22.3273801,45.9719975 26.0395038,49.7363951 28.3662357,51.0717185 C31.6815284,52.9742509 34.0225728,50.7875337 36.1923827,48.6711716 C38.5670757,46.3549734 38.193929,42.9207836 38.6793808,43.0315547 C41.8421164,43.7529328 45.0234508,44.3656642 48.1600539,45.2430323 C50.9192664,46.0147886 53.282725,47.688495 54.7230716,51.0717189 C55.099285,51.9551567 55.100933,52.6492214 54.4965902,53.1435945 C53.0844949,54.2983458 51.710068,55.6849577 50.1590704,56.3759876 C43.1120134,59.5155149 35.8865022,61.527301 28.3662355,60.8784552 C22.0692511,60.3349179 15.9761471,58.5531716 10.1323609,55.436709 C9.91553204,55.3210821 9.70011571,55.1908881 9.50094388,55.0321667 C6.20990021,52.4091667 6.28641421,52.1032562 8.90366383,48.6711716 C10.0480778,47.1704502 11.7626977,46.0618284 13.3676083,45.5431766 C16.77872,44.4409279 22.0917811,43.5347288 22.3486327,43.5347288" id="Fill-4" fill="#FFFFFF" mask="url(#mask-4)"></path>
                </g>
            </g>
        </g>
    </g>
</svg>