<?xml version="1.0" encoding="UTF-8" standalone="no"?>
<svg width="48px" height="50px" viewBox="0 0 48 50" version="1.1" xmlns="http://www.w3.org/2000/svg" xmlns:xlink="http://www.w3.org/1999/xlink">
    <!-- Generator: Sketch 39.1 (31720) - http://www.bohemiancoding.com/sketch -->
    <title>Shape</title>
    <desc>Created with Sketch.</desc>
    <defs></defs>
    <g id="CRM_0722" stroke="none" stroke-width="1" fill="none" fill-rule="evenodd">
        <g id="CRM-page" transform="translate(-637.000000, -1248.000000)" fill="#00A1FF">
            <g id="Tab-Bar-Copy-3" transform="translate(0.000000, 1237.000000)">
                <path d="M670.663366,34.8654147 C672.009901,34.3959311 672.722772,32.4397496 673.19802,30.7965571 C673.831683,28.5273865 673.752475,26.9624413 673.039604,26.1017214 C673.831683,21.7981221 673.514851,18.5899844 672.009901,16.5555556 C671.217822,15.5383412 670.267327,15.0688576 669.633663,14.9123631 C669.158416,14.286385 668.287129,13.2691706 666.782178,12.4084507 C665.19802,11.4694836 663.455446,11 661.475248,11 C661.158416,11 660.762376,11 660.445545,11.0782473 C659.574257,11.1564945 658.70297,11.312989 657.910891,11.5477308 L657.910891,11.5477308 C656.960396,11.8607199 656.089109,12.3302034 655.217822,12.9561815 C654.188119,13.5821596 653.316832,14.3646322 652.524752,15.1471049 C650.940594,16.7120501 649.910891,18.5117371 649.514851,20.3896714 C649.118812,21.9546166 649.039604,23.5978091 649.435644,25.1627543 C649.277228,25.3192488 649.118812,25.4757433 648.960396,25.6322379 C648.247525,26.571205 648.247525,28.057903 648.881188,30.2488263 C649.356436,31.8137715 649.910891,33.3787167 650.861386,34.0829421 C651.178218,35.5696401 651.653465,36.8998435 652.287129,38.0735524 L652.287129,40.5774648 C650.544554,41.4381847 645.39604,44.0985915 640.405941,47.9327074 C638.267327,49.5758998 637,52.1580595 637,54.8967136 L637,57.5571205 C637,59.4350548 638.584158,61 640.485149,61 L681.514851,61 C683.49505,61 685,59.4350548 685,57.5571205 L685,54.8967136 C685,52.1580595 683.732673,49.5758998 681.594059,47.9327074 C676.60396,44.0985915 671.534653,41.4381847 669.712871,40.5774648 L669.712871,37.5258216 C670.108911,36.6651017 670.425743,35.8043818 670.663366,34.8654147 L670.663366,34.8654147 Z M668.207921,42.4553991 C669.237624,42.9248826 674.70297,45.6635368 680.089109,49.8106416 C681.594059,50.9843505 682.544554,52.8622848 682.544554,54.8184664 L682.544554,57.4788732 C682.544554,58.0266041 682.069307,58.4178404 681.594059,58.4178404 L640.326733,58.4178404 C639.772277,58.4178404 639.376238,57.9483568 639.376238,57.4788732 L639.376238,54.8184664 C639.376238,52.8622848 640.326733,50.9843505 641.831683,49.8106416 C647.217822,45.6635368 652.683168,43.0031299 653.712871,42.4553991 C654.267327,42.14241 654.663366,41.5946792 654.663366,40.9687011 L654.663366,37.6823161 C654.663366,37.4475743 654.584158,37.2128326 654.50495,37.056338 C653.792079,35.8826291 653.316832,34.5524257 653.079208,32.9874804 C653,32.5179969 652.60396,32.1267606 652.128713,31.970266 C651.970297,31.8137715 651.574257,31.2660407 651.09901,29.5446009 C650.70297,28.1361502 650.70297,27.5101721 650.782178,27.2754304 C651.178218,27.2754304 651.574257,27.1189358 651.811881,26.8059468 C652.049505,26.4929577 652.128713,26.0234742 651.970297,25.6322379 C651.415842,24.1455399 651.336634,22.6588419 651.811881,21.0938967 C652.128713,19.6071987 653,18.198748 654.267327,16.9467919 C654.980198,16.2425665 655.693069,15.6165884 656.564356,15.0688576 L656.643564,15.0688576 C657.356436,14.599374 658.069307,14.2081377 658.782178,13.9733959 L658.782178,13.9733959 C659.415842,13.7386541 660.049505,13.6604069 660.683168,13.6604069 C662.50495,13.5039124 664.089109,13.8169014 665.594059,14.6776213 C667.178218,15.5383412 667.811881,16.6338028 667.811881,16.6338028 C668.049505,17.0250391 668.366337,17.2597809 668.841584,17.3380282 C668.841584,17.3380282 669.554455,17.4162754 670.108911,18.2769953 C670.742574,19.1377152 671.613861,21.3286385 670.50495,26.4929577 C670.346535,27.0406886 670.663366,27.6666667 671.217822,27.9014085 C671.29703,28.057903 671.376238,28.6838811 670.90099,30.2488263 C670.50495,31.5790297 670.188119,32.2050078 670.029703,32.5179969 C669.792079,32.4397496 669.554455,32.5179969 669.316832,32.5962441 C668.920792,32.7527387 668.60396,33.143975 668.524752,33.5352113 C668.287129,34.7871674 667.970297,35.8826291 667.49505,36.8215962 C667.257426,36.8215962 667.257426,36.9780908 667.257426,37.1345853 L667.257426,40.9687011 C667.257426,41.6729264 667.574257,42.2206573 668.207921,42.4553991 L668.207921,42.4553991 Z" id="Shape"></path>
            </g>
        </g>
    </g>
</svg>