<?xml version="1.0" encoding="UTF-8" standalone="no"?>
<svg width="42px" height="42px" viewBox="0 0 42 42" version="1.1" xmlns="http://www.w3.org/2000/svg" xmlns:xlink="http://www.w3.org/1999/xlink">
    <!-- Generator: Sketch 3.7.2 (28276) - http://www.bohemiancoding.com/sketch -->
    <title>Group</title>
    <desc>Created with Sketch.</desc>
    <defs></defs>
    <g id="Page-1" stroke="none" stroke-width="1" fill="none" fill-rule="evenodd">
        <g id="account" transform="translate(-26.000000, -427.000000)">
            <g id="Group" transform="translate(27.000000, 428.000000)">
                <circle id="Oval-179" stroke="#8D8D9C" cx="20" cy="20" r="20"></circle>
                <path d="M8.80648472,8.09615721 L8.13155022,8.71484716 C9.93137555,10.3178166 11.3937336,11.8364192 12.4905022,13.270655 L13.1654367,12.5957205 C11.9843013,11.0771179 10.5500655,9.58663755 8.80648472,8.09615721 L8.80648472,8.09615721 Z M25.9610699,32.4500437 L32.3448253,32.4500437 L32.5698035,31.4376419 C31.8667467,31.4376419 30.8824672,31.4657642 29.6169651,31.4938865 C28.3233406,31.4938865 27.0578384,31.5220087 25.8204585,31.5220087 C23.48631,31.5220087 21.6302402,31.4938865 20.2522489,31.4657642 C18.5086681,31.4095197 17.1306769,31.2126638 16.1182751,30.8751965 C15.1902402,30.4814847 14.3465721,29.8627948 13.5591485,28.9628821 C13.1654367,28.5129258 12.7717249,28.2035808 12.3780131,28.0629694 L12.3780131,17.4327511 L7.65347162,17.4327511 L7.65347162,18.360786 L11.4218559,18.360786 L11.4218559,28.0629694 C10.4094541,28.4004367 9.17207424,29.8065502 7.7659607,32.28131 L8.52526201,32.9 C10.0438646,30.2565066 11.1406332,28.9347598 11.8718122,28.9347598 C12.2374017,28.9347598 12.6311135,29.159738 13.0248253,29.6659389 C13.9809825,30.7908297 15.0496288,31.4938865 16.1745197,31.8313537 C17.2994105,32.168821 18.8180131,32.3375546 20.7303275,32.3937991 C22.5863974,32.4219214 24.3299782,32.4500437 25.9610699,32.4500437 L25.9610699,32.4500437 Z M15.9495415,9.53039301 L15.9495415,16.8140611 L18.5649127,16.8140611 L19.5491921,19.2044541 L14.8808952,19.2044541 L14.8808952,20.0762445 L17.7774891,20.0762445 C17.5525109,21.988559 17.2150437,23.5071616 16.7650873,24.6882969 C16.2588865,25.7850655 15.5558297,26.7974672 14.6277948,27.7536245 L15.1621179,28.4566812 C16.2307642,27.4442795 17.0181878,26.2912664 17.5806332,24.9976419 C17.7493668,24.5476856 17.8899782,24.0133624 18.0587118,23.4227948 L22.5301528,23.4227948 C22.4739083,25.4475983 22.3895415,26.7131004 22.2208079,27.2474236 C21.9958297,27.7817467 21.5458734,28.0629694 20.8146943,28.119214 L19.1836026,28.119214 L19.4085808,28.9910044 L21.0677948,28.9910044 C21.9395852,28.9628821 22.5582751,28.6254148 22.9238646,27.9786026 C23.2613319,27.3317904 23.4300655,25.5319651 23.4300655,22.6072489 L18.2555677,22.6072489 C18.396179,21.8760699 18.5367904,21.0324017 18.6492795,20.0762445 L24.5268341,20.0762445 L24.5268341,19.2044541 L20.5053493,19.2044541 L19.5210699,16.8140611 L23.4019432,16.8140611 L23.4019432,9.53039301 L19.746048,9.53039301 C19.9991485,8.82733624 20.1960044,8.06803493 20.3366157,7.28061135 L19.3804585,7.14 C19.2679694,7.98366812 19.0711135,8.7710917 18.7898908,9.53039301 L15.9495415,9.53039301 Z M22.5582751,16.0266376 L16.8213319,16.0266376 L16.8213319,13.5518777 L22.5582751,13.5518777 L22.5582751,16.0266376 Z M16.8213319,12.7644541 L16.8213319,10.3178166 L22.5582751,10.3178166 L22.5582751,12.7644541 L16.8213319,12.7644541 Z M26.4672707,12.9050655 L29.9825546,12.9050655 C29.92631,15.7735371 29.5888428,18.360786 28.9420306,20.6105677 C28.0421179,19.2044541 27.114083,17.9670742 26.1579258,16.9265502 L25.6236026,17.5171179 C26.6641266,18.7544978 27.6484061,20.1606114 28.6045633,21.679214 C27.6484061,24.4351965 26.2141703,26.6287336 24.3018559,28.3160699 L24.8080568,29.1034934 C26.7203712,27.4724017 28.1827293,25.3069869 29.195131,22.6634934 C30.235655,24.378952 31.1918122,26.2912664 32.0636026,28.3723144 L32.7104148,27.7255022 C31.6980131,25.4475983 30.6574891,23.4227948 29.5607205,21.6229694 C30.3481441,19.1200873 30.7981004,16.2234934 30.8824672,12.9050655 L32.6541703,12.9050655 L32.6541703,11.9770306 L26.7203712,11.9770306 C27.0859607,10.6271616 27.3953057,9.10855895 27.6202838,7.42122271 L26.6922489,7.25248908 C26.186048,11.3864629 25.2017686,14.6767686 23.7675328,17.0952838 L24.3018559,17.7702183 C25.145524,16.4203493 25.8767031,14.8173799 26.4672707,12.9050655 L26.4672707,12.9050655 Z" id="邀" fill="#8D8D9C"></path>
            </g>
        </g>
    </g>
</svg>