<?xml version="1.0" encoding="UTF-8" standalone="no"?>
<svg width="154px" height="154px" viewBox="0 0 154 154" version="1.1" xmlns="http://www.w3.org/2000/svg" xmlns:xlink="http://www.w3.org/1999/xlink">
    <!-- Generator: Sketch 3.8.2 (29753) - http://www.bohemiancoding.com/sketch -->
    <title>Oval 74 + Shape 3</title>
    <desc>Created with Sketch.</desc>
    <defs>
        <circle id="path-1" cx="75" cy="75" r="75"></circle>
        <mask id="mask-2" maskContentUnits="userSpaceOnUse" maskUnits="objectBoundingBox" x="-2" y="-2" width="154" height="154">
            <rect x="-2" y="-2" width="154" height="154" fill="white"></rect>
            <use xlink:href="#path-1" fill="black"></use>
        </mask>
    </defs>
    <g id="Page-1" stroke="none" stroke-width="1" fill="none" fill-rule="evenodd">
        <g id="account-copy-3" transform="translate(-298.000000, -161.000000)">
            <g id="Oval-74-+-Shape-3" transform="translate(300.000000, 163.000000)">
                <g id="Oval-74">
                    <use fill="#202028" fill-rule="evenodd" xlink:href="#path-1"></use>
                    <use stroke-opacity="0.5" stroke="#FFFFFF" mask="url(#mask-2)" stroke-width="4" xlink:href="#path-1"></use>
                </g>
                <path d="M96.275157,111.847949 C94.1508209,111.055376 90.774644,110.226777 89.7124759,108.965865 C88.6123733,107.740979 88.6123733,98.842542 88.6123733,98.842542 C88.6123733,98.842542 91.2677934,96.5008481 92.367896,93.8709458 C93.4679986,91.2410435 94.1887555,84.1078837 94.1887555,84.1078837 C94.1887555,84.1078837 94.4163629,84.1799358 94.7577741,84.1799358 C95.5544001,84.1799358 96.9959139,83.675571 97.6787362,80.3611735 C98.5132968,76.2902288 100.106549,74.1646913 99.6892686,71.1745284 C99.385792,69.1570691 98.4753622,68.8328345 97.9442782,68.8328345 C97.6787362,68.8328345 97.4890633,68.9048867 97.4890633,68.9048867 C97.4890633,68.9048867 99.651334,65.8786977 99.651334,55.5752447 C99.651334,44.9835833 91.040186,34.5360261 75.1456,34.5 C59.2130795,34.5360261 50.639866,44.9835833 50.639866,55.5752447 C50.639866,65.8426716 52.8021367,68.9048867 52.8021367,68.9048867 C52.8021367,68.9048867 52.6124638,68.8328345 52.3469218,68.8328345 C51.7779032,68.8328345 50.8674735,69.1570691 50.6019315,71.1745284 C50.1846512,74.1646913 51.7399687,76.3262549 52.6124638,80.3611735 C53.2952861,83.675571 54.7367999,84.1799358 55.5334259,84.1799358 C55.8748371,84.1799358 56.1024445,84.1078837 56.1024445,84.1078837 C56.1024445,84.1078837 56.8232014,91.2770695 57.923304,93.8709458 C59.0234066,96.5008481 61.6788267,98.842542 61.6788267,98.842542 C61.6788267,98.842542 61.6788267,107.740979 60.5787241,108.965865 C59.4786215,110.190751 56.1403791,111.055376 54.016043,111.847949 C50.9812772,112.964757 44.0392504,113.39707 39.7905783,114.802086 C35.5419061,116.207103 22.416544,120.574219 22.416544,128.291077 C22.416544,128.291077 42.9267578,150.098633 75.1456013,150.098633 C108.744143,150.098633 127.841799,128.291077 127.841799,128.291077 C127.841799,120.150391 114.787228,116.207103 110.500622,114.802086 C106.25195,113.39707 99.3099228,112.964757 96.275157,111.847949 Z" id="Shape-2" fill="#F0F0F0"></path>
            </g>
        </g>
    </g>
</svg>