<?xml version="1.0" encoding="UTF-8" standalone="no"?>
<svg width="88px" height="88px" viewBox="0 0 88 88" version="1.1" xmlns="http://www.w3.org/2000/svg" xmlns:xlink="http://www.w3.org/1999/xlink">
    <!-- Generator: Sketch 3.8.3 (29802) - http://www.bohemiancoding.com/sketch -->
    <title>logo</title>
    <desc>Created with Sketch.</desc>
    <defs></defs>
    <g id="Brokerage-detail_0630" stroke="none" stroke-width="1" fill="none" fill-rule="evenodd">
        <g id="Brokerage-Design-Version-1.0" transform="translate(-2288.000000, -5881.000000)">
            <g id="bank-cards" transform="translate(2223.000000, 4860.000000)">
                <g id="bank1" transform="translate(0.000000, 976.000000)">
                    <g id="logo" transform="translate(65.000000, 45.000000)">
                        <ellipse id="Oval-33" fill="#FFFFFF" cx="44" cy="44" rx="44" ry="44"></ellipse>
                        <path d="M45.5532614,58.8081059 L45.5532614,64.5616254 L64.4958419,64.5616254 L64.4958419,58.8081059 L64.4958419,53.0545864 L64.4958419,47.2977631 L58.6482695,47.2977631 L52.8409327,47.2977631 L52.8409327,41.5508511 L64.4958419,41.5508511 L64.4958419,35.7973316 L64.4958419,30.0355526 L64.4958419,25.0336413 L64.4958419,24.2803812 L45.5532614,24.2803812 L45.5532614,30.0355526 L58.6482695,30.0355526 L58.6482695,35.7973316 L46.9765954,35.7973316 L46.9765954,53.0545864 L58.6482695,53.0545864 L58.6482695,58.8081059 L45.5532614,58.8081059 L45.5532614,58.8081059 Z M11.8794256,44.4350443 C11.8794256,26.9696519 26.263649,12.7849054 43.9974853,12.7849054 C61.7279686,12.7849054 76.1054861,26.9696519 76.1054861,44.4350443 C76.1054861,61.9053925 61.7279686,76.075272 43.9974853,76.075272 C26.263649,76.075272 11.8794256,61.9053925 11.8794256,44.4350443 L11.8794256,44.4350443 Z M6,44.4350443 C6,23.7501257 22.9995368,7 43.9974853,7 C64.9870514,7 82,23.7501257 82,44.4350443 C82,65.1150073 64.9870514,81.88 43.9974853,81.88 C22.9995368,81.88 6,65.1150073 6,44.4350443 L6,44.4350443 Z M42.6076809,30.0124262 L42.6076809,24.2572548 L23.6416297,24.2572548 L23.6416297,41.5326803 L35.2663623,41.5326803 L35.2663623,47.2878518 L29.4791432,47.2878518 L23.6416297,47.2878518 L23.6416297,64.5467584 L42.6076809,64.5467584 L42.6076809,58.7899351 L29.4791432,58.7899351 L29.4791432,53.0463269 L41.1491408,53.0463269 L41.1491408,52.2815036 L41.1491408,47.2878518 L41.1491408,41.5326803 L41.1491408,35.7675976 L35.2428915,35.7675976 L29.4791432,35.7675976 L29.4791432,30.0124262 L42.6076809,30.0124262 L42.6076809,30.0124262 Z" id="Icon" fill="#C7000C"></path>
                    </g>
                </g>
            </g>
        </g>
    </g>
</svg>