<?xml version="1.0" encoding="UTF-8" standalone="no"?>
<svg width="88px" height="88px" viewBox="0 0 88 88" version="1.1" xmlns="http://www.w3.org/2000/svg" xmlns:xlink="http://www.w3.org/1999/xlink">
    <!-- Generator: Sketch 3.8.3 (29802) - http://www.bohemiancoding.com/sketch -->
    <title>logo</title>
    <desc>Created with Sketch.</desc>
    <defs></defs>
    <g id="Brokerage-detail_0630" stroke="none" stroke-width="1" fill="none" fill-rule="evenodd">
        <g id="Brokerage-Design-Version-1.0" transform="translate(-3878.000000, -5231.000000)">
            <g id="bank-cards" transform="translate(2223.000000, 4860.000000)">
                <g id="bank1" transform="translate(1590.000000, 326.000000)">
                    <g id="logo" transform="translate(65.000000, 45.000000)">
                        <path d="M44,88 C68.300529,88 88,68.300529 88,44 C88,19.699471 68.300529,0 44,0 C19.699471,0 0,19.699471 0,44 C0,68.300529 19.699471,88 44,88 Z" id="Oval-33" fill="#FFFFFF"></path>
                        <path d="M39.8913305,49.2834132 L39.3316506,53.0378224 L28.8397951,53.0378224 L29.2845407,49.2834132 L39.8913305,49.2834132 L39.8913305,49.2834132 Z M25.8729208,53.0378224 L15.1540523,53.0378224 L15.8479411,49.2834132 L26.3305162,49.4354165 L25.8729208,53.0378224 L25.8729208,53.0378224 Z M47.3120856,17.4228769 L69.4201534,17.4228769 L70.5595017,11 L45.4081747,11 L44.2516934,20.9389948 L30.5181208,20.9389948 L27.3799159,41.4436742 L13.8276682,41.4436742 L11,58.6928943 L24.567953,58.6928943 L21.4226094,79 L49.7142829,79 L53.0309571,58.6928943 L63.2715278,58.6928943 L64.2745254,51.9961872 L51.3761894,51.9961872 L47.8953234,72.294974 L25.5659536,72.294974 L26.2198652,69.0478336 L45.7451248,69.0478336 L48.8890407,48.067591 L64.7663869,48.067591 L65.9278654,41.4436742 L47.059373,41.4436742 L43.7612596,61.9511265 L27.2135825,61.9511265 L27.5469632,58.4890815 L41.1441852,58.4890815 L43.7719678,41.6329289 L30.3289433,41.6329289 L30.7751166,37.9795494 L50.3781888,37.9795494 L51.8716203,27.6287695 L67.5704972,27.6287695 L68.8704679,21.0651646 L49.934871,21.0651646 L48.4385841,31.1386482 L31.8031,31.1386482 L32.3799129,27.6287695 L45.8200819,27.6287695 L47.3120856,17.4228769 Z" id="Icon" fill="#006E4C"></path>
                    </g>
                </g>
            </g>
        </g>
    </g>
</svg>