<?xml version="1.0" encoding="UTF-8" standalone="no"?>
<svg width="88px" height="88px" viewBox="0 0 88 88" version="1.1" xmlns="http://www.w3.org/2000/svg" xmlns:xlink="http://www.w3.org/1999/xlink">
    <!-- Generator: Sketch 3.8.3 (29802) - http://www.bohemiancoding.com/sketch -->
    <title>logo</title>
    <desc>Created with Sketch.</desc>
    <defs></defs>
    <g id="Brokerage-detail_0630" stroke="none" stroke-width="1" fill="none" fill-rule="evenodd">
        <g id="Brokerage-Design-Version-1.0" transform="translate(-2288.000000, -5231.000000)">
            <g id="bank-cards" transform="translate(2223.000000, 4860.000000)">
                <g id="bank1" transform="translate(0.000000, 326.000000)">
                    <g id="logo" transform="translate(65.000000, 45.000000)">
                        <ellipse id="Oval-33" fill="#FFFFFF" cx="44" cy="44" rx="44" ry="44"></ellipse>
                        <polyline id="Icon" fill="#C22C2F" points="80.4908139 54.3414901 80.8354312 53.0640294 81.1384567 51.7925104 81.3939489 50.4912829 81.6019076 49.2138222 81.6969744 48.5661793 81.7623329 47.8947698 81.833633 47.2411852 81.9049332 46.599484 81.9227582 45.9221327 81.9702916 45.2507232 81.9702916 44.5852553 82 43.907904 81.9702916 42.9334688 81.9465249 41.9887421 81.8811664 41.032132 81.8098663 40.0755219 81.7147995 39.1367368 81.6019076 38.209835 81.4593073 37.2769916 81.0909233 35.4707216 80.8829646 34.5675866 80.6750059 33.6822766 80.4195137 32.8029083 80.1343132 31.9473067 79.8312876 31.0917051 79.5163787 30.2301618 79.1895864 29.3983269 78.8152607 28.5605504 78.4468767 27.7287155 78.0309593 26.9206473 77.6150418 26.1066375 77.1753577 25.3163943 76.7119068 24.5320929 76.2009225 23.7418497 75.6899382 22.9753733 75.1551872 22.2088969 74.5966695 21.4661872 74.0203268 20.7234774 73.4439841 20.0045344 72.8141662 19.2618247 72.1665233 18.5666484 71.5188805 17.8477054 70.8177625 17.1525291 70.1285279 16.4811195 69.4095849 15.80971 68.6847002 15.1858338 67.9657572 14.5560159 67.2289891 13.9559065 66.4862794 13.3736221 65.719803 12.8151044 64.9533266 12.2862951 64.1927918 11.7753108 63.396607 11.2880932 62.6123055 10.8246423 61.8042374 10.3671331 60.9902275 9.94527402 60.1762177 9.55312329 59.3443828 9.15503088 58.5125479 8.81041357 57.6569463 8.45985459 56.795403 8.13306231 55.9338597 7.85380346 55.0782582 7.58048628 54.1988898 7.31905246 53.3135799 7.0932687 52.4163865 6.87936831 51.5073098 6.70111797 50.6041748 6.534751 49.6772731 6.39215073 48.7503714 6.27925885 47.8234696 6.16636698 46.8728012 6.09506684 45.9221327 6.04753342 44.9714643 6 43.0285357 6 42.0481589 6.04753342 41.0737237 6.09506684 40.1230553 6.16636698 39.1961535 6.27925885 38.2692518 6.39215073 37.3482918 6.534751 36.4154484 6.70111797 35.5123133 6.87936831 34.6091783 7.0932687 33.7238683 7.31905246 32.8445 7.58048628 31.9948401 7.85380346 31.1332968 8.13306231 30.2717536 8.45985459 29.4399187 8.81041357 28.6080838 9.15503088 27.7703072 9.55312329 26.9622391 9.94527402 26.1482292 10.3671331 25.3579861 10.8246423 24.5677429 11.2880932 23.7774998 11.7753108 23.0169651 12.2862951 22.2564303 12.8151044 21.5137206 13.3736221 20.7710109 13.9559065 20.0283011 14.5560159 19.2855914 15.1858338 18.5904151 15.80971 17.8714721 16.4811195 17.1762958 17.1525291 16.4811195 17.8477054 15.8334767 18.5666484 15.1798921 19.2618247 14.5560159 20.0045344 13.9499648 20.7234774 13.3914471 21.4661872 12.8388711 22.2088969 12.3100618 22.9753733 11.7693691 23.7418497 11.2880932 24.5320929 10.8246423 25.3163943 10.3790165 26.1066375 9.94527402 26.9206473 9.54718161 27.7287155 9.17879759 28.5605504 8.80447189 29.3983269 8.45391291 30.2301618 8.15682902 31.0917051 7.85974513 31.9473067 7.5745446 32.8029083 7.32499414 33.6822766 7.0932687 34.5675866 6.87936831 35.4707216 6.70111797 36.3738566 6.534751 37.2769916 6.39809241 38.209835 6.27925885 39.1367368 6.19013369 40.0755219 6.09506684 41.032132 6.04753342 41.9887421 6.02376671 42.9334688 6 43.907904 6.04753342 45.8567743 6.09506684 46.8074427 6.19013369 47.7521695 6.27925885 48.7028379 6.39809241 49.6356813 6.534751 50.5625831 6.70111797 51.4657181 6.87936831 52.3747948 7.0932687 53.2719881 7.32499414 54.1810648 7.5745446 55.0544914 7.85974513 55.9160347 8.15682902 56.795403 8.45391291 57.6331796 8.80447189 58.4887812 9.17879759 59.3265577 9.54718161 60.1583926 9.94527402 60.9724025 10.3790165 61.7804706 10.8246423 62.5885388 11.2880932 63.378782 11.7693691 64.1690251 12.8388711 65.7257447 13.3914471 66.4625127 13.9499648 67.2289891 14.5560159 67.9479321 15.1798921 68.6906419 15.8334767 69.4095849 16.4811195 70.1225862 17.1762958 70.8237042 17.8714721 71.4951138 18.5904151 72.1665233 19.2855914 72.8201079 20.0283011 73.4202173 20.7710109 74.0203268 21.5137206 74.6026112 22.2564303 75.1551872 23.0169651 75.6899382 23.7774998 76.2009225 24.5677429 76.6940818 25.3579861 77.151591 26.1482292 77.6091001 26.9622391 78.0309593 27.7703072 78.4468767 28.6080838 78.8212024 29.4399187 79.1895864 30.2717536 79.5163787 31.1332968 79.843171 31.9948401 80.1402549 32.8445 80.395747 33.7238683 80.6512392 34.6091783 80.8829646 35.5123133 81.096865 36.4154484 81.281057 37.3482918 81.4414823 38.2692518 81.5781409 39.1961535 81.7266828 40.1230553 81.8098663 41.0737237 81.8811664 42.0481589 81.9286999 43.0285357 81.9762333 44.0029708 81.9762333 45.3695567 81.9524666 46.7064342 81.9049332 48.0314283 81.7920413 49.3564225 81.6434993 50.6517082 81.465249 51.9054022 81.2335236 53.1769213 80.948323 54.4068486 80.6512392 55.6130091 80.2828551 56.8191697 79.8847627 58.0015636 79.4510202 59.1601908 78.9816277 60.2950512 78.4468767 61.4299117 77.8943007 62.5469471 77.2882496 63.6342741 76.6643734 64.3769838 76.2009225 65.0959268 75.7374717 65.7911031 75.2740208 66.438746 74.7868032 67.0863889 74.329294 67.6864983 73.8361348 68.2687827 73.3489172 68.8213588 72.8616996 69.3323431 72.3507153 69.849269 71.8634978 70.3067782 71.3584552 70.752404 70.8474709 71.1683215 70.3186616 71.5604722 69.8017356 71.9110312 69.2669846 72.2556485 68.7322336 72.5586741 68.2034243 72.8379329 67.6686733 73.0934251 67.139864 73.3251505 66.5754046 73.5331092 66.0228286 73.6994762 65.4702525 73.8599015 64.9117348 73.9727934 64.3294504 74.0678602 63.7709327 74.1332187 63.1945899 74.1807521 62.0359628 74.1569854 61.4358533 74.1332187 60.8535689 74.0678602 60.2475178 73.9727934 59.6474083 73.8599015 59.1601908 73.7410679 58.6492065 73.6044094 58.1857556 73.4618091 57.698538 73.2776171 57.2410288 73.0934251 56.795403 72.8854663 56.3557189 72.6537409 55.9160347 72.3982488 55.5001173 72.1427566 55.0841998 71.8397311 54.6623407 71.5367055 54.27019 71.2158549 53.901806 70.8950043 53.5274803 70.5147369 53.1590962 70.1463529 52.7847705 69.7482605 52.4401532 69.3323431 52.113361 68.8926589 51.7925104 68.4589164 51.4657181 67.9895239 51.1626925 67.5023063 50.8656086 66.9972637 50.5863498 66.4625127 50.2833242 65.9277617 50.0278321 65.3751857 49.7782816 64.7988429 49.5168478 64.1927918 49.2851224 63.5689156 49.0533969 62.9390978 48.8216715 62.2914549 48.6137128 61.6200453 48.405754 59.8850754 47.7997029 60.4317098 47.4788523 60.9664608 47.1282933 61.4774451 46.783676 61.9408959 46.4093503 62.3865218 46.0171996 62.7964975 45.6191072 63.1708232 45.2091314 63.5154405 44.7635056 63.8422328 44.3297631 64.1214917 43.8603706 64.3948088 43.373153 64.6087092 42.8859354 64.816668 42.3808928 64.9770933 41.8699085 65.0959268 41.3351575 65.2147604 40.7766398 65.2563521 40.128997 65.2801188 39.5229458 65.2563521 38.8990697 65.2147604 38.2751935 65.0959268 37.675084 64.9355015 37.0630912 64.7513095 36.4867485 64.5136424 35.886639 64.2343836 35.3102963 63.913533 34.7220702 63.5392073 34.1516691 63.1292315 33.5931514 62.6598389 33.0346337 62.1488547 32.476116 61.590337 31.9473067 61.0139942 31.4125557 60.3663513 30.854038 59.7187085 30.3252287 59.0413572 29.8380111 58.3461809 29.3686186 57.6331796 28.9289344 56.8904699 28.513017 56.1239934 28.1446329 55.3337503 27.7762489 54.5256821 27.443515 53.6879056 27.1226644 52.832304 26.8374638 51.9529357 26.5879134 51.043859 26.3621296 50.1169572 26.1244625 49.1603471 25.9402705 48.1977953 25.7798452 47.0807599 25.6194199 45.9696662 25.4768196 44.8050973 25.3639278 43.6524119 25.2629192 42.470018 25.1797358 41.2638574 25.1024939 40.0576968 25.0549605 38.8099445 25.0371355 37.5562505 25.0133688 36.2728481 25.0371355 34.983504 25.0371355 33.6585099 25.0787272 32.3156907 25.1500274 30.9491048 25.2272692 29.5765773 25.2926276 28.1862247 25.4114612 28.1862247 37.3958252 29.2973184 37.2532249 30.4143538 37.1106247 31.5254476 37.0214995 32.660308 36.9323743 33.7773434 36.8610742 34.9062622 36.8135408 36.0470643 36.7838324 38.340552 36.7838324 39.4754124 36.8373075 40.6340396 36.8848409 41.7986084 36.9739661 42.9512939 37.0630912 44.109921 37.1878665 45.2923149 37.3185834 46.4806505 37.4611836 47.4313189 37.6275506 48.3344539 37.8117426 49.1603471 38.0197014 49.9565319 38.2276601 50.6814166 38.4831522 51.3468845 38.7386444 51.9707607 39.0179032 52.5292784 39.3149871 52.7847705 39.4575874 53.0105543 39.6180127 53.2482214 39.8022047 53.4502384 39.96263 53.6700805 40.1527637 53.8245641 40.3369557 54.0087562 40.5270894 54.1513564 40.7053397 54.2939567 40.9192401 54.4306153 41.1271988 54.5494488 41.3351575 54.638574 41.566883 54.7039325 41.7748417 54.7752326 42.0065671 54.822766 42.2382925 54.8702994 42.4937847 54.8702994 42.9097021 54.822766 43.1236025 54.7752326 43.355328 54.5910406 43.8603706 54.3355484 44.442655 54.1751231 44.6684387 53.9909311 44.9061059 53.7889141 45.1140646 53.5274803 45.2744899 53.2719881 45.4349152 52.9927293 45.5775154 52.6897037 45.6904073 52.3688531 45.7854742 52.0182941 45.8567743 51.6202017 45.9221327 51.228051 45.9518411 50.3486827 45.9518411 49.8852318 45.9221327 49.3980142 45.8567743 48.8632632 45.7854742 47.4729106 45.6191072 46.1122664 45.4824486 44.7397389 45.363615 43.3969197 45.2744899 42.0719256 45.2091314 40.7528731 45.161598 39.4338207 45.1378313 38.1325932 45.1140646 36.8610742 45.1378313 35.5836135 45.161598 34.3061528 45.2091314 33.0524588 45.2744899 31.8284731 45.363615 30.5985459 45.4824486 29.3923853 45.6191072 28.1862247 45.7854742 28.1862247 58.0015636 29.8796028 57.8114299 31.5254476 57.6331796 33.1475256 57.4905793 34.7696036 57.3776874 36.3263232 57.3063873 37.8771011 57.2410288 39.3803456 57.2113205 40.865765 57.2113205 42.3274177 57.2588539 43.7653037 57.3063873 45.1556563 57.4014541 46.5222422 57.5381127 47.871003 57.680713 49.1959972 57.8589633 50.4675162 58.0728637 51.7212102 58.3045892 52.7134704 58.4887812 53.6403721 58.7205066 54.5256821 58.952232 55.3337503 59.2077242 56.094285 59.5107497 56.795403 59.8137753 57.1221953 59.9742006 57.4192792 60.1346259 57.7223047 60.2950512 58.0015636 60.4851849 58.2629974 60.6693769 58.5125479 60.8535689 58.7442733 61.0615276 58.9462904 61.2516613 59.1601908 61.45962 59.3443828 61.6675788 59.5048081 61.8695958 59.6652334 62.1072629 59.801892 62.3389884 59.9207255 62.5707138 60.0395591 62.8024392 60.1108592 63.0579314 60.205926 63.2896568 60.2475178 63.5451489 60.2950512 63.8006411 60.3425846 64.0739583 60.3425846 64.2878587 60.3663513 64.5136424 60.3425846 64.7513095 60.3425846 64.9533266 60.2950512 65.185052 60.2475178 65.3930107 60.1762177 65.6306778 60.1108592 65.8386365 60.0157924 66.070362 59.9029005 66.2842624 59.7840669 66.5100461 59.6474083 66.7477132 59.3443828 67.2052224 58.9759987 67.6686733 58.7442733 67.9479321 58.4650145 68.2034243 58.1798139 68.4529747 57.88273 68.6906419 57.5856462 68.9223673 57.2588539 69.148151 56.9380033 69.3620514 56.5874443 69.5700102 56.2368853 69.7779689 55.8685013 69.9681026 55.4704089 70.1522946 55.0782582 70.3364866 54.6623407 70.4969119 54.2226566 70.6632789 53.7889141 70.7999375 53.3135799 70.936596 52.850129 71.0791963 52.3688531 71.1980299 51.8816355 71.3109217 51.3468845 71.4000469 50.2773825 71.5901806 49.1603471 71.7506059 47.9838949 71.8634978 46.7361426 71.9585646 45.4349152 72.006098 43.3493863 72.006098 42.6304433 71.9763896 41.9115003 71.9407396 41.1984989 71.8932062 40.497381 71.8159643 39.8022047 71.7268392 39.1307951 71.6317723 38.4356188 71.5188805 37.7642092 71.3762802 37.0927996 71.2158549 36.4451568 71.0494879 35.7915722 70.8652959 35.1379876 70.6811039 34.4962865 70.4553201 33.8664686 70.2235947 33.2425924 69.9859276 32.6187163 69.7126104 31.9948401 69.4274099 31.388789 69.148151 30.7827379 68.8273004 30.2063951 68.5005082 29.6241107 68.1558909 29.0418263 67.8053319 28.4654835 67.4369479 27.9129075 67.0447971 27.3543898 66.6288797 26.7958721 66.2070206 26.2373544 65.7673364 25.7085451 65.3038855 25.1737941 64.8404347 24.6628098 64.3532171 24.1340005 63.8481745 23.6408412 63.3371902 23.1536236 62.8024392 22.6723477 62.2736299 22.2088969 61.7329372 21.763271 61.1981862 21.3473536 60.6456102 20.9314362 60.0870925 20.5333438 59.5285748 20.1649597 58.952232 19.7965757 58.3937143 19.4460167 57.7936049 19.1251661 57.2113205 18.8221406 56.611211 18.519115 56.0051599 18.2398561 55.4050504 17.966539 54.7752326 17.7051052 54.1810648 17.4733797 53.5274803 17.265421 52.9036041 17.0574623 52.2500195 16.8792119 51.6023767 16.712845 50.9547338 16.5524197 50.2833242 16.4157611 49.6059729 16.2969275 48.9345634 16.1840357 48.2393871 16.1067938 47.5501525 16.0176687 46.8490345 15.9701353 46.1597999 15.9226018 45.4349152 15.8988351 44.7159722 15.8988351 43.2780862 15.9226018 42.5650848 15.9701353 41.8461418 16.0176687 41.1450238 16.1067938 40.4498475 16.1840357 39.7546713 16.2969275 39.0832617 16.4157611 38.3940271 16.5524197 37.7404425 16.712845 37.0630912 16.8792119 36.42139 17.0574623 35.7440388 17.265421 35.1261043 17.4733797 34.4725197 17.7051052 33.8427019 17.966539 33.2188257 18.2398561 32.5949496 18.519115 31.9948401 19.1251661 30.7886795 19.4460167 30.1826284 19.7965757 29.6062857 20.1649597 29.0240013 20.5333438 28.4654835 20.9314362 27.8891408 21.3473536 27.3306231 21.763271 26.7721054 22.2088969 26.2432961 22.6723477 25.7085451 23.1536236 25.1797358 23.6408412 24.6449848 24.1340005 24.1280588 24.6628098 23.6230162 25.1975608 23.1357986 25.7263701 22.6723477 26.2670628 22.2088969 26.8255805 21.7692127 27.3722148 21.3532953 27.9307325 20.9314362 28.4892503 20.5392854 29.065593 20.1649597 29.6478774 19.7965757 30.2301618 19.4519584 30.8302713 19.1251661 31.4303807 18.8043155 32.0364319 18.4953483 32.6365413 18.2220311 33.2663592 17.966539 33.8902353 17.7110468 34.5200532 17.4793214 35.1617544 17.247596 35.7915722 17.0574623 36.4689235 16.8732703 37.1106247 16.6890783 37.7879759 16.5524197 38.4593855 16.4157611 39.1307951 16.2909858 39.8022047 16.178094 40.497381 16.0830271 41.216324 16.0176687 41.9115003 15.9701353 42.6304433 15.9226018 43.3493863 15.8988351 44.0623876 15.8810101 44.7872723 15.8988351 45.5062153 15.9226018 46.2251583 15.9701353 46.9203346 16.0176687 47.6214526 16.0830271 48.3106872 16.178094 48.9820968 16.2909858 49.6535064 16.4157611 50.324916 16.5524197 50.9963255 16.6890783 51.6499101 16.8732703 52.3034946 17.0574623 52.9511375 17.247596 53.5750137 17.4793214 54.2226566 17.7110468 54.822766 17.966539 55.4466422 18.2220311 56.0526933 18.4953483 56.6587444 18.8043155 57.2588539 19.1251661 57.8411383 19.4519584 58.4412478 19.7965757 58.9997655 20.1649597 59.5820499 20.5392854 60.1346259 20.9314362 60.6872019 21.3532953 61.2219529 21.7692127 61.774529 22.2088969 62.3152216 22.6723477 62.8262059 23.1357986 63.3550152 23.6230162 63.8719412 24.1280588 64.3472754 24.6449848 64.8404347 25.1500274 65.3276523 25.6847784 65.7911031 26.2195294 66.2307873 26.7542804 66.6467047 27.3068564 67.0685638 27.8653741 67.4607146 28.4238918 67.8290986 29.0002345 68.1796576 29.582519 68.5242749 30.1648034 68.8688922 30.7589712 69.1719178 31.3471972 69.4749433 31.9710734 69.7482605 32.5771245 70.033461 33.2010007 70.2889532 33.8248769 70.5147369 34.448753 70.7286373 35.0963959 70.936596 35.7440388 71.1207881 36.3976233 71.287155 37.0452662 71.4475803 37.7166758 71.5842389 38.3940271 71.7030725 39.059495 71.7921976 39.7546713 71.8872645 40.4498475 72.0298647 41.8461418 72.0773982 42.5650848 72.0952232 43.2780862 72.0952232 44.0029708 71.9585646 47.0569932 72.5586741 47.4313189 73.1587835 47.7818779 73.7648346 48.1740286 74.3411774 48.5661793 74.8996951 48.9820968 75.4582128 49.4039559 76.0167305 49.8198733 76.5514815 50.2833242 77.0802908 50.7527168 77.6150418 51.2102259 78.1022594 51.6974435 78.607302 52.1787194 79.0945196 52.7134704 79.5579704 53.2244547 80.027363 53.7829724 80.4908139 54.3414901"></polyline>
                    </g>
                </g>
            </g>
        </g>
    </g>
</svg>