<?xml version="1.0" encoding="UTF-8" standalone="no"?>
<svg width="88px" height="88px" viewBox="0 0 88 88" version="1.1" xmlns="http://www.w3.org/2000/svg" xmlns:xlink="http://www.w3.org/1999/xlink">
    <!-- Generator: Sketch 3.8.3 (29802) - http://www.bohemiancoding.com/sketch -->
    <title>logo</title>
    <desc>Created with Sketch.</desc>
    <defs></defs>
    <g id="Brokerage-detail_0630" stroke="none" stroke-width="1" fill="none" fill-rule="evenodd">
        <g id="Brokerage-Design-Version-1.0" transform="translate(-3078.000000, -5881.000000)">
            <g id="bank-cards" transform="translate(2223.000000, 4860.000000)">
                <g id="bank1" transform="translate(790.000000, 976.000000)">
                    <g id="logo" transform="translate(65.000000, 45.000000)">
                        <ellipse id="Oval-33" fill="#FFFFFF" cx="44" cy="44" rx="44" ry="44"></ellipse>
                        <path d="M56.8641633,23.6515497 C52.6208708,23.6515497 48.6554536,24.8887076 45.3232276,27.0181922 L33.9956334,34.3322458 L33.9956334,9 L14,25.7938898 L14,57.5508875 C14,66.9898884 20.165643,75.0019229 28.7243541,77.8119956 L32.5341307,79 C24.7323641,75.121404 19.3828849,67.2734668 19.3828849,58.2012272 C19.3828849,45.2919831 30.2185032,34.8245379 43.5770167,34.8245379 C56.0563509,34.8245379 66.3347002,43.9481997 67.6420807,55.6588525 L53.8432184,55.6588525 C52.6406105,51.0716886 48.4542597,47.6763101 43.4669295,47.6763101 C37.5480337,47.6763101 32.7543052,52.4532825 32.7543052,58.3464194 C32.7543052,64.2448497 37.5480337,69.0233344 43.4669295,69.0233344 C48.9394026,69.0233344 53.4484229,64.9534175 54.1089461,59.6796158 L67.7316689,59.6697851 C67.4287393,64.3862608 65.6749361,68.7299254 62.8999792,72.2765456 C62.8999792,72.2765456 71.3417702,62.4276794 74.2526278,57.9758769 C76.8666296,53.9354522 78.3030779,49.7566411 78.3030779,45.0046237 C78.3030779,33.2138127 68.702714,23.6515497 56.8641633,23.6515497" id="Icon" fill="#00367A"></path>
                    </g>
                </g>
            </g>
        </g>
    </g>
</svg>