<?xml version="1.0" encoding="UTF-8" standalone="no"?>
<svg width="88px" height="88px" viewBox="0 0 88 88" version="1.1" xmlns="http://www.w3.org/2000/svg" xmlns:xlink="http://www.w3.org/1999/xlink">
    <!-- Generator: Sketch 3.8.3 (29802) - http://www.bohemiancoding.com/sketch -->
    <title>银行</title>
    <desc>Created with Sketch.</desc>
    <defs></defs>
    <g id="Brokerage-detail_0630" stroke="none" stroke-width="1" fill="none" fill-rule="evenodd">
        <g id="Brokerage-Design-Version-1.0" transform="translate(-3878.000000, -5556.000000)">
            <g id="bank-cards" transform="translate(2223.000000, 4860.000000)">
                <g id="bank1" transform="translate(1590.000000, 650.000000)">
                    <g id="银行" transform="translate(65.000000, 46.000000)">
                        <ellipse id="Oval-33" fill="#FFFFFF" cx="44" cy="44" rx="44" ry="44"></ellipse>
                        <g id="Group-4" transform="translate(10.000000, 21.000000)">
                            <path d="M1.44642581,42.8274574 C0.612,42.8274574 0,42.2194508 0,41.3774938 L0,36.4156311 C0,35.6543011 0.612,34.9643457 1.44642581,34.9643457 L28.2915097,34.9643457 L28.2915097,7.55646485 L3.50090323,7.55646485 C2.73886452,7.55646485 2.12949677,6.87047477 2.12949677,6.10517949 L2.12949677,1.37462366 C2.12949677,0.610650124 2.73886452,0 3.50090323,0 L63.6519484,0 C64.412671,0 65.0207226,0.610650124 65.0207226,1.37462366 L65.0207226,6.10517949 C65.0207226,6.87047477 64.412671,7.55646485 63.6519484,7.55646485 L38.9389935,7.55646485 L38.9389935,34.9643457 L66.0104516,34.9643457 C66.8488258,34.9643457 67.4542452,35.6543011 67.4542452,36.4156311 L67.4542452,41.3774938 C67.4542452,42.2194508 66.8488258,42.8274574 66.0104516,42.8274574 L38.9389935,42.8274574 L38.9389935,53.211153 C38.9389935,53.9711613 38.2546065,54.5844549 37.4925677,54.5844549 L29.6602839,54.5844549 C28.8982452,54.5844549 28.2915097,53.9711613 28.2915097,53.211153 L28.2915097,42.8274574 L1.44642581,42.8274574 L1.44642581,42.8274574 Z" id="Path" fill="#E7530D"></path>
                            <path d="M24.4155097,28.7838263 C24.7169032,29.3151712 24.7919226,29.6204963 24.7919226,29.7724979 C24.7919226,30.2337899 24.4892129,30.463775 23.878529,30.463775 L16.1238968,30.463775 C14.5261161,30.463775 14.1483871,30.2337899 13.6140387,29.1631696 L5.70805161,13.7435931 C5.55274839,13.357641 5.40270968,12.9756543 5.40270968,12.7483127 C5.40270968,12.2896642 5.70805161,12.0623226 6.31347097,12.0623226 L13.9944,12.0623226 C15.5158452,12.0623226 15.9712258,12.2896642 16.5042581,13.357641 L24.4155097,28.7838263 L24.4155097,28.7838263 Z" id="Path" fill="#EA5504"></path>
                            <path d="M53.3098065,12.0623226 L60.9920516,12.0623226 C61.6514323,12.0623226 61.8975484,12.3266733 61.9028129,12.7483127 C61.9093935,12.9069231 61.781729,13.2320744 61.5250839,13.7435931 L53.6914839,29.1631696 C53.1584516,30.2337899 52.7715097,30.463775 51.1816258,30.463775 L43.4256774,30.463775 C42.8176258,30.463775 42.5162323,30.2337899 42.5162323,29.7724979 C42.5162323,29.6204963 42.5162323,29.4684946 42.891329,28.7838263 L50.8012645,13.357641 C51.2579613,12.3650041 51.7896774,12.0623226 53.3098065,12.0623226 L53.3098065,12.0623226 Z" id="Path" fill="#EA5504"></path>
                        </g>
                    </g>
                </g>
            </g>
        </g>
    </g>
</svg>