<?xml version="1.0" encoding="UTF-8" standalone="no"?>
<svg width="88px" height="88px" viewBox="0 0 88 88" version="1.1" xmlns="http://www.w3.org/2000/svg" xmlns:xlink="http://www.w3.org/1999/xlink">
    <!-- Generator: Sketch 3.8.3 (29802) - http://www.bohemiancoding.com/sketch -->
    <title>招商银行</title>
    <desc>Created with Sketch.</desc>
    <defs></defs>
    <g id="Brokerage-detail_0630" stroke="none" stroke-width="1" fill="none" fill-rule="evenodd">
        <g id="Withdrawal-Commision-Application" transform="translate(-95.000000, -214.000000)">
            <g id="Group-2" transform="translate(30.000000, 169.000000)">
                <g id="Group-3">
                    <g id="Group-4" transform="translate(65.000000, 45.000000)">
                        <g id="招商银行">
                            <circle id="Oval-33" fill="#FFFFFF" cx="44" cy="44" r="44"></circle>
                            <path d="M44.6596957,6.56716418 L46.2267746,6.56716418 L47.9011061,6.73994644 L49.4741436,6.82335857 L50.9578039,7.08551097 L52.5367998,7.34766337 L54.0264186,7.69918591 L55.5160373,8.13412057 L56.9996976,8.57501325 L57.7027977,8.83716565 L58.4058978,9.10527606 L59.8061394,9.71299299 L61.2063811,10.3266679 L62.5172456,11.023755 L63.8281101,11.7268001 L65.1449331,12.5132573 L66.3783375,13.3890846 L67.5998249,14.2649119 L68.7378936,15.1407393 L69.8759624,16.1059368 L71.0140311,17.1545464 L72.0627228,18.203156 L73.1173729,19.2636816 L74.0826458,20.4016613 L74.5176145,21.0093783 L74.9525832,21.6230532 L75.9178562,22.8563611 L76.7103334,24.0717949 L77.4908936,25.3051028 L78.2774123,26.6158648 L78.8911353,28.015997 L79.5942353,29.332717 L80.1185811,30.7328491 L80.6429269,32.2163934 L81.1732312,33.6224835 L64.8827602,33.6224835 L54.8129373,10.0645155 L44.3021871,36.6014881 L33.2670912,10.3266679 L13.8305454,60.5050206 L22.6788809,71.5392535 L67.6832435,71.5392535 L75.9178562,59.5338652 L75.1313374,57.6987984 L80.4701312,57.6987984 L79.9398269,59.0989305 L79.3320624,60.4096925 L78.7183395,61.7264125 L78.1046165,62.9537624 L77.3180978,64.2645244 L76.6149978,65.4918743 L75.7450604,66.635812 L74.9525832,67.7618757 L74.0826458,68.9058135 L73.1173729,70.0497512 L72.1520999,71.0149487 L71.1034083,72.0576003 L70.0487582,73.0287558 L68.9941081,73.9879953 L67.8619978,74.8697806 L66.7179706,75.7336919 L65.5799018,76.5261071 L64.3584144,77.3125643 L63.136927,78.0156094 L61.820104,78.7186545 L60.5092395,79.3263714 L59.1924165,79.8566342 L57.7921748,80.380939 L56.4813103,80.9052438 L55.0751102,81.3461365 L53.5854914,81.6976591 L52.1792913,82.0432236 L50.695631,82.305376 L49.9984894,82.3947461 L49.2060122,82.4841163 L47.7163934,82.6568985 L46.2267746,82.7462687 L42.7291497,82.7462687 L40.8045622,82.5675284 L38.8740163,82.305376 L36.9434704,81.9598115 L35.10826,81.5129608 L33.3624268,81.0780261 L31.6046767,80.4643512 L29.852885,79.7672641 L28.1904704,78.9808069 L26.5280558,78.1883917 L25.7355787,77.6640869 L24.9550184,77.2291522 L23.370064,76.2639547 L21.8804453,75.2093871 L20.3967849,74.0773654 L19.6996434,73.4636905 L19.0859204,72.8500155 L18.3887788,72.2363406 L17.7750559,71.6226656 L16.4582329,70.3059456 L15.2248285,68.9058135 L14.7064412,68.2087264 L14.1761369,67.4163112 L13.0440266,65.9268089 L12.6030995,65.2297219 L12.0787537,64.4373067 L11.643785,63.6508495 L11.2028578,62.7750221 L10.326962,61.2080657 L9.54044327,59.450453 L8.92672033,57.7941265 L8.31299739,55.9471437 L7.78865158,54.201447 L7.5205202,53.2302915 L7.34772442,52.3604222 L7.17492864,51.3952247 L7.00213286,50.4359853 L6.73400148,48.5949604 L6.65058283,46.5811534 L6.56716418,45.6159559 L6.56716418,44.6507584 L6.73400148,40.7959265 L7.00213286,38.8714896 L7.34772442,36.9410946 L7.78865158,35.1060278 L8.31299739,33.3543731 L8.92672033,31.6086765 L9.54044327,29.8570218 L10.326962,28.1887792 L11.2028578,26.5205367 L11.643785,25.7400375 L12.0787537,24.9535803 L13.0440266,23.3747079 L14.1761369,21.8852056 L15.2248285,20.4016613 L15.8445099,19.6986163 L16.4582329,19.0849413 L17.0719558,18.3878543 L17.7750559,17.7682213 L19.0859204,16.4574593 L20.3967849,15.2301094 L21.1892621,14.7058046 L21.8804453,14.1814998 L23.370064,13.0435201 L24.1625412,12.6026274 L24.9550184,12.0783226 L25.7355787,11.6374299 L26.5280558,11.2024953 L28.1904704,10.3266679 L29.852885,9.54021072 L31.6046767,8.83716565 L33.3624268,8.31286085 L35.10826,7.78259804 L36.0675745,7.52044564 L36.9434704,7.34766337 L37.9087433,7.17488111 L38.8740163,7.00209884 L40.8045622,6.73994644 L42.7291497,6.6446183 L43.6944227,6.56716418 L44.6596957,6.56716418 L44.6596957,6.56716418 Z M65.7586561,35.7256608 L81.697577,35.7256608 L82.0491271,37.2985752 L66.4557977,37.2985752 L65.7586561,35.7256608 L65.7586561,35.7256608 Z M67.3316935,39.3957944 L82.4006771,39.3957944 L82.5734729,40.9746668 L67.9454164,40.9746668 L67.3316935,39.3957944 L67.3316935,39.3957944 Z M68.9106894,43.077844 L82.7462687,43.077844 L82.7462687,44.6507584 L69.5244124,44.6507584 L68.9106894,43.077844 L68.9106894,43.077844 Z M70.4003082,46.7539356 L82.7462687,46.7539356 L82.5734729,48.332808 L71.1034083,48.332808 L70.4003082,46.7539356 L70.4003082,46.7539356 Z M71.9793041,50.4359853 L82.3113,50.4359853 L82.0491271,52.0088997 L72.6764457,52.0088997 L71.9793041,50.4359853 L71.9793041,50.4359853 Z M73.5523415,54.1120769 L81.6141584,54.1120769 L81.1732312,55.6015792 L74.2554416,55.6015792 L73.5523415,54.1120769 L73.5523415,54.1120769 Z M19.8724391,60.05817 L30.204435,33.9680481 L40.977358,60.05817 L19.8724391,60.05817 L19.8724391,60.05817 Z M41.5017038,60.05817 L51.8336997,33.9680481 L62.6066227,60.05817 L41.5017038,60.05817 L41.5017038,60.05817 Z" id="Icon" fill="#C4282B"></path>
                        </g>
                    </g>
                </g>
            </g>
        </g>
    </g>
</svg>