<?xml version="1.0" encoding="UTF-8" standalone="no"?>
<svg width="88px" height="88px" viewBox="0 0 88 88" version="1.1" xmlns="http://www.w3.org/2000/svg" xmlns:xlink="http://www.w3.org/1999/xlink">
    <!-- Generator: Sketch 3.8.3 (29802) - http://www.bohemiancoding.com/sketch -->
    <title>logo</title>
    <desc>Created with Sketch.</desc>
    <defs></defs>
    <g id="Brokerage-detail_0630" stroke="none" stroke-width="1" fill="none" fill-rule="evenodd">
        <g id="Brokerage-Design-Version-1.0" transform="translate(-3878.000000, -5881.000000)">
            <g id="bank-cards" transform="translate(2223.000000, 4860.000000)">
                <g id="bank1" transform="translate(1590.000000, 976.000000)">
                    <g id="logo" transform="translate(65.000000, 45.000000)">
                        <ellipse id="Oval-33" fill="#FFFFFF" cx="44" cy="44" rx="44" ry="44"></ellipse>
                        <path d="M81.9923859,43.9044232 C81.9923859,34.158393 68.7857536,26.2587787 52.5030306,26.2587787 C39.4715223,26.2587787 28.4082553,31.325953 24.5174573,38.3461404 L24.5174573,38.3385263 C24.1595953,38.9895306 23.957822,39.6976406 23.957822,40.440014 C23.957822,42.1836397 25.0618644,43.7483344 26.7864549,44.7572008 L41.7329059,53.3915744 C42.5095427,53.8179632 43.42704,54.065421 44.4206783,54.065421 C45.4257376,54.065421 46.343235,53.8179632 47.1160647,53.3953815 L61.2973,45.2026249 C62.2566748,44.6506036 62.8581876,43.7825978 62.8581876,42.8156089 C62.8581876,41.8752692 62.2871312,41.0491409 61.381055,40.4856985 L56.1121074,37.4362571 L44.4206783,44.1823373 L35.5845314,39.0770926 C38.999449,35.9971948 45.3648249,33.9337775 52.6515053,33.9337775 C63.5434554,33.9337775 72.3834093,38.5555277 72.3834093,44.2622852 C72.1473726,53.1060462 59.1843911,59.9434955 43.4384612,59.5361419 C27.6811101,59.1249812 15.1026399,51.6136853 15.3310625,42.7775384 L15.3272554,42.7775384 C15.4414667,31.1165656 30.7267445,21.8083454 49.4573962,21.9910835 C51.1286881,22.0139258 52.7657166,22.0976807 54.3646746,22.2613836 C50.5195612,20.8451636 45.7188799,20 40.4880028,20 C36.3230977,20 32.4132645,20.5406001 29.0516455,21.4809397 C15.4947653,25.2004208 6,33.8424085 6,43.9044232 C6,57.3737414 23.0098683,68.2961479 43.9980965,68.2961479 C64.9825177,68.2961479 82,57.3737414 82,43.9044232 L81.9923859,43.9044232" id="Icon" fill="#003D6E"></path>
                    </g>
                </g>
            </g>
        </g>
    </g>
</svg>