<?xml version="1.0" encoding="UTF-8" standalone="no"?>
<svg width="88px" height="88px" viewBox="0 0 88 88" version="1.1" xmlns="http://www.w3.org/2000/svg" xmlns:xlink="http://www.w3.org/1999/xlink">
    <!-- Generator: Sketch 3.8.3 (29802) - http://www.bohemiancoding.com/sketch -->
    <title>logo</title>
    <desc>Created with Sketch.</desc>
    <defs></defs>
    <g id="Brokerage-detail_0630" stroke="none" stroke-width="1" fill="none" fill-rule="evenodd">
        <g id="Brokerage-Design-Version-1.0" transform="translate(-3078.000000, -5231.000000)">
            <g id="bank-cards" transform="translate(2223.000000, 4860.000000)">
                <g id="bank1" transform="translate(790.000000, 326.000000)">
                    <g id="logo" transform="translate(65.000000, 45.000000)">
                        <ellipse id="Oval-33" fill="#FFFFFF" cx="44" cy="44" rx="44" ry="44"></ellipse>
                        <path d="M43.8676419,56.7843169 L43.8676419,81.9973529 C22.9409497,81.9241156 6,64.9392437 6,44.0004412 C6,25.9646585 18.5687217,10.8601317 35.4214327,6.97237928 L35.4214327,29.9477076 C35.497318,30.7515529 36.1299896,31.3895113 36.9338442,31.4645134 L36.9373737,31.4751019 L41.335191,31.4751019 C42.2678741,31.4751019 43.0214327,32.2321812 43.0214327,33.1604417 L43.0214327,44.9754676 C43.0214327,44.0869141 42.3305236,43.3580708 41.4569604,43.2963045 L33.0442819,43.2963045 C32.9931034,43.2989516 32.9383954,43.3051282 32.887217,43.3051282 C32.8342738,43.3051282 32.7813305,43.2989516 32.7336816,43.2963045 C32.1583653,43.2442442 31.667758,42.8983525 31.4083362,42.4139276 C31.4012771,42.4024567 31.3951004,42.393633 31.3915709,42.3856916 C31.3571578,42.3098072 31.3218623,42.2356875 31.2953907,42.1545088 C31.2795077,42.1077429 31.2636248,42.056565 31.2503889,42.0053871 C31.2424475,41.9674449 31.2362708,41.9312675 31.2247997,41.8977372 C31.2133287,41.8103819 31.20274,41.7221442 31.20274,41.6356712 C31.20274,41.630377 31.1983281,41.6277299 31.1983281,41.6242003 L31.1983281,41.6171413 L31.1983281,41.6109647 L31.1983281,41.6091999 L31.1983281,41.6003762 L31.1983281,31.4751019 L31.1983281,31.4645134 L31.1983281,29.7853502 L31.1983281,17.4532514 C21.2264716,22.1951446 14.3341461,32.3574787 14.3341461,44.1327977 C14.3341461,59.0087889 25.3339835,71.3152988 39.6427726,73.3659426 L39.6427726,56.7904936 L33.0442819,56.7904936 C32.9931034,56.7966702 32.9383954,56.7966702 32.887217,56.7966702 C32.8342738,56.7966702 32.7813305,56.7966702 32.7336816,56.7904936 C31.8742366,56.7146091 31.20274,55.9972368 31.1983281,55.1175071 L31.1983281,55.110448 L31.1983281,44.969291 L31.1983281,43.2821864 C31.1983281,44.2148588 31.9554162,44.969291 32.887217,44.969291 L41.335191,44.969291 C42.2678741,44.969291 43.0214327,45.7298998 43.0214327,46.6616898 L43.0214327,56.7843169 L43.8676419,56.7843169 L43.8676419,56.7843169 Z M43.8676419,6 C42.8378962,6.00264713 41.8213863,6.05117786 40.8128178,6.13412128 C40.4192732,6.1676516 40.0310229,6.20647618 39.6427726,6.24706552 L39.6427726,27.8370621 C39.6427726,28.9047381 40.5172182,29.7791736 41.5849065,29.7791736 L43.8676419,29.7791736 L43.8676419,6 L43.8676419,6 Z M43.8676419,81.9973529 L43.8676419,56.7843169 L44.7138512,56.7843169 L44.7138512,46.6616898 C44.7138512,45.7298998 45.4647626,44.969291 46.3983281,44.969291 L54.8454197,44.969291 C55.7781029,44.969291 56.5360734,44.2148588 56.5360734,43.2821864 L56.5360734,55.1175071 C56.5325438,55.9972368 55.8584001,56.7146091 54.9998375,56.7904936 C54.9504238,56.7966702 54.8992453,56.7966702 54.8454197,56.7966702 C54.7933589,56.7966702 54.7386509,56.7966702 54.691002,56.7904936 L48.0907465,56.7904936 L48.0907465,73.3659426 C62.3986532,71.3152988 73.3976083,59.0087889 73.3976083,44.1327977 C73.3976083,32.3574787 66.5061651,22.1951446 56.5360734,17.4532514 L56.5360734,41.6242003 C56.5360734,41.6277299 56.5325438,41.630377 56.5325438,41.6356712 C56.5325438,41.7221442 56.5228376,41.8103819 56.5060722,41.8977372 C56.4954836,41.9312675 56.4893069,41.9674449 56.480483,42.0053871 C56.4716591,42.056565 56.4575409,42.1077429 56.4363636,42.1545088 C56.409892,42.2356875 56.3816556,42.3098072 56.3393011,42.3856916 C56.3357715,42.393633 56.332242,42.4024567 56.3269476,42.4139276 C56.0648787,42.8983525 55.5786834,43.2442442 54.9998375,43.2963045 C54.9504238,43.2989516 54.8992453,43.3051282 54.8454197,43.3051282 C54.7933589,43.3051282 54.7386509,43.2989516 54.691002,43.2963045 L46.2792059,43.2963045 C45.4021131,43.3580708 44.7138512,44.0869141 44.7138512,44.9754676 L44.7138512,43.2963045 L44.7138512,43.2892455 L44.7138512,33.1604417 C44.7138512,32.2321812 45.4647626,31.4751019 46.3983281,31.4751019 L50.7943806,31.4751019 L50.7979101,31.4645134 C51.5982352,31.3895113 52.2388483,30.7515529 52.3103216,29.9477076 L52.3103216,15.8287957 L52.3103216,15.8279133 L52.3103216,6.91149528 C69.3015674,10.7030686 82,25.8693618 82,44.0004412 C82,64.9851273 64.9911065,82 44,82 L43.8676419,81.9973529 L43.8676419,81.9973529 Z M47.1898293,6.13412128 C46.1406711,6.0494131 45.0721003,6 44,6 L43.8676419,6 L43.8676419,29.7791736 L46.1468478,29.7791736 C47.2163009,29.7791736 48.0907465,28.9047381 48.0907465,27.8370621 L48.0907465,14.9031824 L48.0907465,12.4307624 L48.0907465,6.21794708 C47.7916173,6.18618151 47.4907233,6.15971021 47.1898293,6.13412128 L47.1898293,6.13412128 Z" id="Icon" fill="#009994"></path>
                    </g>
                </g>
            </g>
        </g>
    </g>
</svg>