<?xml version="1.0" encoding="UTF-8" standalone="no"?>
<svg width="88px" height="88px" viewBox="0 0 88 88" version="1.1" xmlns="http://www.w3.org/2000/svg" xmlns:xlink="http://www.w3.org/1999/xlink">
    <!-- Generator: Sketch 3.8.3 (29802) - http://www.bohemiancoding.com/sketch -->
    <title>银行</title>
    <desc>Created with Sketch.</desc>
    <defs></defs>
    <g id="Brokerage-detail_0630" stroke="none" stroke-width="1" fill="none" fill-rule="evenodd">
        <g id="Brokerage-Design-Version-1.0" transform="translate(-2288.000000, -5555.000000)">
            <g id="bank-cards" transform="translate(2223.000000, 4860.000000)">
                <g id="bank1" transform="translate(0.000000, 650.000000)">
                    <g id="银行" transform="translate(65.000000, 45.000000)">
                        <ellipse id="Oval-33" fill="#FFFFFF" cx="44" cy="44" rx="44" ry="44"></ellipse>
                        <path d="M34.9990328,36.3192231 L52.3163009,36.3192231 C52.3163009,36.3192231 53.7879731,36.0355272 53.929821,37.6490474 L53.929821,49.6351974 C53.929821,49.6351974 54.2785305,51.5324135 52.8777822,51.2487176 L35.3477423,51.2487176 C35.3477423,51.2487176 33.9529044,51.5974271 33.7401325,49.9898173 L33.7401325,37.6490474 C33.7401325,37.6490474 33.9529044,36.3192231 34.9990328,36.3192231 L34.9990328,36.3192231 Z M40.1173789,14.4450903 L40.1173789,28.3993804 L34.2306899,28.3993804 C34.2306899,28.3993804 26.2399232,28.8840275 25.9621377,37.7199714 L25.9621377,50.6163123 C25.9621377,50.6163123 26.1689992,58.5420653 34.4434618,59.4463459 L40.1173789,59.4463459 L40.1173789,73.187864 C40.1173789,73.187864 26.2399232,72.419521 18.597866,59.0976364 C18.597866,59.0976364 12.0078477,49.7002111 14.7443306,37.9977569 C17.4808136,26.2953028 23.8580601,21.6025004 25.1228708,20.4086137 C26.3817711,19.2206373 34.5498477,14.3564354 40.1173789,14.4450903 L40.1173789,14.4450903 Z M47.8303601,14.4510007 C47.8303601,14.4510007 56.5894697,15.1484197 63.6700455,21.6675141 C70.7506213,28.1866085 72.5710031,34.7057029 73.3452564,38.2105288 C74.1135993,41.7153547 74.6750807,51.739275 69.0720875,60.2915231 C63.4572736,68.8378608 52.8068583,72.7682305 47.8303601,73.187864 L47.8303601,59.4463459 L54.4203785,59.4463459 C54.4203785,59.4463459 61.4300303,58.0515079 61.8496638,50.7581602 L61.8496638,36.1064512 C61.8496638,36.1064512 60.7207907,28.7540002 52.9487062,28.3993804 L47.8303601,28.3993804 L47.8303601,14.4510007 L47.8303601,14.4510007 Z M43.6931288,6.0346902 C43.6931288,6.0346902 60.2361436,4.6339419 73.1324845,19.6343604 C73.1324845,19.6343604 81.4719606,28.7540002 81.962518,42.1349882 C81.962518,42.1349882 82.659937,52.2298325 78.0380587,60.8530045 C73.41027,69.4702662 68.3628478,74.0271309 60.0942956,78.1643622 C51.8257434,82.3015934 38.5038588,82.8630748 29.7447491,78.7908572 C20.9797292,74.7304602 15.5835975,70.451381 10.4711618,61.201714 C10.4711618,61.201714 3.59744752,49.4283359 6.89541187,35.763652 C6.89541187,35.763652 7.73467879,27.6251271 15.1639641,18.7950935 C15.1639641,18.7950935 26.0271513,5.47911915 43.6931288,6.0346902 L43.6931288,6.0346902 Z" id="Icon" fill="#982C30"></path>
                    </g>
                </g>
            </g>
        </g>
    </g>
</svg>