<?xml version="1.0" encoding="UTF-8" standalone="no"?>
<svg width="88px" height="88px" viewBox="0 0 88 88" version="1.1" xmlns="http://www.w3.org/2000/svg" xmlns:xlink="http://www.w3.org/1999/xlink">
    <!-- Generator: Sketch 3.8.3 (29802) - http://www.bohemiancoding.com/sketch -->
    <title>招商银行</title>
    <desc>Created with Sketch.</desc>
    <defs></defs>
    <g id="Brokerage-detail_0630" stroke="none" stroke-width="1" fill="none" fill-rule="evenodd">
        <g id="Brokerage-Design-Version-1.0" transform="translate(-3078.000000, -4905.000000)">
            <g id="bank-cards" transform="translate(2223.000000, 4860.000000)">
                <g id="bank1" transform="translate(790.000000, 0.000000)">
                    <g id="招商银行" transform="translate(65.000000, 45.000000)">
                        <ellipse id="Oval-33" fill="#FFFFFF" cx="44" cy="44" rx="44" ry="44"></ellipse>
                        <g id="Icon" transform="translate(6.000000, 8.000000)">
                            <path d="M37.7643955,25.0095477 C36.3816621,22.1946651 35.0714618,19.3337689 33.843005,16.4314604 C31.5587893,11.0398155 29.5773702,5.55729383 27.8906888,0.00115034027 C21.7000496,17.8141694 12.1314422,34.1812107 0,48.1394395 C8.73505286,46.1033372 17.6405009,44.7827466 26.6714426,44.189171 C30.7908599,38.0624588 34.4923486,31.6596648 37.7643955,25.0095477" id="Shape" fill="#BA1122"></path>
                            <path d="M37.7643955,43.8245131 C34.0479397,43.8245131 30.3510562,43.9475996 26.6714426,44.1880207 C21.6804772,51.6134671 16.0758591,58.6328434 9.88521997,65.2162408 C18.9011945,63.479227 28.2499001,62.6429296 37.7643955,62.6429296 C47.2800423,62.6429296 56.6310505,63.479227 65.6458738,65.2162408 C59.4552346,58.6328434 53.8506165,51.6134671 48.8584999,44.1880207 C45.1800375,43.9475996 41.4820027,43.8245131 37.7643955,43.8245131" id="Shape" fill="#700007"></path>
                            <path d="M0.00115131842,48.1405898 L9.88637129,65.2162408 C16.0770104,58.6328434 21.6816285,51.6146174 26.6725939,44.1880207 C17.6405009,44.7815963 8.73620418,46.1033372 0.00115131842,48.1405898" id="Shape" fill="#ED1B2F"></path>
                            <path d="M26.6725939,44.1880207 C30.7920112,38.0613084 34.4934999,31.6596648 37.7655469,25.0095477 C41.0375938,31.6596648 44.7390825,38.0613084 48.8584999,44.1880207 C45.1811888,43.9475996 41.483154,43.8245131 37.7655469,43.8245131 C34.049091,43.8245131 30.3510562,43.9475996 26.6725939,44.1880207" id="Shape" fill="#FFFFFF"></path>
                            <path d="M47.6381023,6.39488462e-14 C45.9548748,5.55729383 43.9700018,11.0398155 41.6869374,16.4314604 C40.459632,19.3349192 39.1505829,22.1946651 37.7643955,25.0095477 C41.0375938,31.6596648 44.7379312,38.0613084 48.8584999,44.1880207 C57.8894416,44.7815963 66.7971922,46.1021869 75.535699,48.1405898 C63.3973489,34.1812107 53.8287415,17.8141694 47.6381023,6.39488462e-14" id="Shape" fill="#ED1B2F"></path>
                            <path d="M37.7643955,25.0095477 C39.1505829,22.1946651 40.459632,19.3337689 41.6869374,16.4314604 C43.9711532,11.0398155 45.9548748,5.55729383 47.6381023,0.00115034027 L27.8906888,0.00115034027 C29.5773702,5.55729383 31.5587893,11.0398155 33.843005,16.4314604 C35.0714618,19.3337689 36.3816621,22.1946651 37.7643955,25.0095477" id="Shape" fill="#700007"></path>
                            <path d="M65.6458738,65.2162408 L75.535699,48.1405898 C66.7971922,46.1033372 57.8905929,44.7815963 48.8584999,44.189171 C53.8506165,51.6146174 59.4552346,58.6328434 65.6458738,65.2162408" id="Shape" fill="#BA1122"></path>
                        </g>
                    </g>
                </g>
            </g>
        </g>
    </g>
</svg>