<?xml version="1.0" encoding="UTF-8" standalone="no"?>
<svg width="42px" height="37px" viewBox="0 0 42 37" version="1.1" xmlns="http://www.w3.org/2000/svg" xmlns:xlink="http://www.w3.org/1999/xlink">
    <!-- Generator: Sketch 39.1 (31720) - http://www.bohemiancoding.com/sketch -->
    <title>cake</title>
    <desc>Created with Sketch.</desc>
    <defs></defs>
    <g id="CRM_0802" stroke="none" stroke-width="1" fill="none" fill-rule="evenodd">
        <g id="CRM-page" transform="translate(-511.000000, -178.000000)">
            <g id="cake" transform="translate(512.000000, 178.000000)">
                <rect id="Rectangle-path" fill="#00A1FF" x="11.5630769" y="5.87472527" width="2.34769231" height="6.20791209"></rect>
                <path d="M12.7371429,4.49626374 C13.3832967,4.49626374 13.9107692,3.96923077 13.9107692,3.32263736 C13.9107692,2.6778022 13.3832967,0.26989011 12.7371429,0.26989011 C12.0914286,0.26989011 11.5630769,2.67824176 11.5630769,3.32263736 C11.5630769,3.96879121 12.0914286,4.49626374 12.7371429,4.49626374 L12.7371429,4.49626374 Z" id="Shape" fill="#00A1FF"></path>
                <rect id="Rectangle-path" fill="#00A1FF" x="18.6065934" y="5.87472527" width="2.34769231" height="6.20791209"></rect>
                <path d="M19.7806593,4.49626374 C20.4268132,4.49626374 20.9542857,3.96923077 20.9542857,3.32263736 C20.9542857,2.6778022 20.4268132,0.26989011 19.7806593,0.26989011 C19.1349451,0.26989011 18.6065934,2.67824176 18.6065934,3.32263736 C18.6065934,3.96879121 19.1349451,4.49626374 19.7806593,4.49626374 L19.7806593,4.49626374 Z" id="Shape" fill="#00A1FF"></path>
                <rect id="Rectangle-path" fill="#00A1FF" x="25.6505495" y="5.87472527" width="2.34725275" height="6.20791209"></rect>
                <path d="M26.8241758,4.49626374 C27.4707692,4.49626374 27.9978022,3.96923077 27.9978022,3.32263736 C27.9978022,2.6778022 27.4707692,0.26989011 26.8241758,0.26989011 C26.1793407,0.26989011 25.6505495,2.67824176 25.6505495,3.32263736 C25.6505495,3.96879121 26.1797802,4.49626374 26.8241758,4.49626374 L26.8241758,4.49626374 Z" id="Shape" fill="#00A1FF"></path>
                <path d="M32.5714286,22.6193407 C31.8171429,22.6210989 31.0716484,22.9050549 30.4967033,23.4804396 C28.9516484,25.0259341 26.92,25.7991209 24.898022,25.7991209 C22.872967,25.7991209 20.8413187,25.0228571 19.2984615,23.4795604 L19.298022,23.4804396 C18.7230769,22.9050549 17.9753846,22.6210989 17.2232967,22.6193407 C16.4676923,22.6210989 15.7208791,22.9050549 15.1463736,23.4804396 C14.3076923,24.3191209 13.2021978,24.7415385 12.1028571,24.7397802 C11.0057143,24.7397802 9.90241758,24.3173626 9.06593407,23.4813187 L9.06461538,23.4804396 C8.48879121,22.9050549 7.74197802,22.6210989 6.98901099,22.6210989 C6.23340659,22.6210989 5.48659341,22.9050549 4.91296703,23.4813187 C4.14153846,24.2514286 3.14593407,24.6650549 2.13802198,24.7287912 L2.79252747,35.7745055 L36.7683516,35.7745055 L37.4206593,24.7287912 C36.4131868,24.6650549 35.418022,24.2514286 34.6479121,23.4813187 C34.072967,22.9050549 33.3257143,22.6210989 32.5714286,22.6193407 L32.5714286,22.6193407 Z M30.0158242,13.4461538 L9.54681319,13.4461538 C4.37054945,13.4553846 0.164835165,17.5643956 0,22.7032967 C0.208791209,22.876044 0.438681319,23.0048352 0.676483516,23.1112088 C0.901538462,23.2118681 1.13362637,23.2931868 1.37318681,23.3345055 C1.53714286,23.3617582 1.70417582,23.3767033 1.87164835,23.3767033 C1.93362637,23.3767033 1.99472527,23.3621978 2.0567033,23.3586813 C2.74681319,23.3147253 3.41978022,23.0443956 3.94769231,22.5173626 C4.11428571,22.3498901 4.29406593,22.203956 4.48043956,22.069011 C4.92923077,21.7446154 5.42725275,21.5178022 5.94505495,21.3881319 C6.28835165,21.3024176 6.63868132,21.2549451 6.98901099,21.2549451 C7.3389011,21.2549451 7.68923077,21.301978 8.03208791,21.3881319 C8.55032967,21.5178022 9.04879121,21.7446154 9.4989011,22.069011 C9.68395604,22.2021978 9.8632967,22.3481319 10.0294505,22.5147253 L10.1041758,22.5885714 C10.6676923,23.1120879 11.3832967,23.3749451 12.1028571,23.3749451 C12.8584615,23.3740659 13.6061538,23.090989 14.1810989,22.5156044 C14.3476923,22.3481319 14.5279121,22.2030769 14.7134066,22.069011 C15.1635165,21.7446154 15.6615385,21.5178022 16.1802198,21.3881319 C16.5226374,21.3032967 16.8725275,21.2549451 17.2228571,21.2549451 C17.5727473,21.2549451 17.9230769,21.301978 18.2659341,21.3881319 C18.7841758,21.5178022 19.2826374,21.7446154 19.7327473,22.069011 C19.9178022,22.2021978 20.0971429,22.3481319 20.2637363,22.5147253 L19.7810989,22.9973626 L20.2637363,22.5156044 C21.5446154,23.7956044 23.218022,24.4334066 24.898022,24.4342857 C26.5771429,24.4334066 28.2505495,23.7956044 29.5314286,22.5156044 C29.698022,22.3481319 29.8773626,22.2030769 30.0628571,22.069011 C30.5116484,21.7446154 31.0083516,21.5178022 31.5265934,21.3881319 C31.8694505,21.3024176 32.2206593,21.2540659 32.5714286,21.2549451 C32.9217582,21.2540659 33.2720879,21.3010989 33.6153846,21.3881319 C34.1331868,21.5178022 34.6316484,21.7450549 35.0808791,22.069011 C35.2663736,22.2030769 35.4465934,22.349011 35.6140659,22.5156044 C36.1393407,23.0426374 36.8136264,23.3138462 37.5028571,23.3569231 C37.5665934,23.3613187 37.6272527,23.3749451 37.6901099,23.3749451 C37.8571429,23.3749451 38.0246154,23.3613187 38.1898901,23.3327473 C38.4285714,23.2914286 38.6602198,23.210989 38.8848352,23.1112088 C39.1226374,23.0057143 39.3520879,22.8769231 39.5613187,22.7041758 C39.3978022,17.5643956 35.1916484,13.4553846 30.0158242,13.4461538 L30.0158242,13.4461538 Z" id="Shape" stroke="#00A1FF"></path>
            </g>
        </g>
    </g>
</svg>