<?xml version="1.0" encoding="UTF-8" standalone="no"?>
<svg width="40px" height="40px" viewBox="0 0 40 40" version="1.1" xmlns="http://www.w3.org/2000/svg" xmlns:xlink="http://www.w3.org/1999/xlink">
    <!-- Generator: Sketch 39 (31667) - http://www.bohemiancoding.com/sketch -->
    <title>Shape</title>
    <desc>Created with Sketch.</desc>
    <defs></defs>
    <g id="CRM_0722" stroke="none" stroke-width="1" fill="none" fill-rule="evenodd">
        <g id="生日关怀详情页" transform="translate(-504.000000, -677.000000)" fill="#9B9B97">
            <g id="Group-2-Copy" transform="translate(30.000000, 468.000000)">
                <path d="M513.045763,239.57939 C512.866207,239.396722 512.69465,239.216277 512.519983,239.033609 L511.519533,238.013604 C507.491511,234.054027 505.910169,232.431796 505.743946,232.318462 C505.561279,232.143794 505.380833,231.972238 505.198166,231.792681 C503.21771,229.929116 501.839925,231.416235 500.044805,234.128694 C499.879915,234.379362 499.726136,234.614919 499.583024,234.836253 C499.578135,234.843809 499.573691,234.85092 499.568802,234.858476 C499.516357,234.939809 499.471468,235.009587 499.42169,235.087366 C497.398568,238.228716 497.567013,238.298494 496.860343,238.131382 C496.831009,238.126049 496.804343,238.117604 496.775454,238.10916 C494.478108,237.390934 494.743443,237.251822 490.284752,232.716242 C485.749172,228.257996 485.609616,228.522886 484.891834,226.22554 C484.88339,226.196651 484.87539,226.169984 484.869612,226.140651 C484.7025,225.433536 484.772278,225.602426 487.913628,223.579304 L487.913628,223.579748 C487.991851,223.529526 488.065629,223.481525 488.142074,223.432192 C488.149629,223.427303 488.156741,223.422414 488.164296,223.41797 C488.385631,223.274413 488.621188,223.120635 488.871856,222.956189 C491.584315,221.161068 493.071434,219.783283 491.207868,217.802828 C491.028312,217.620161 490.856755,217.439715 490.682087,217.257047 C490.568754,217.090824 488.946078,215.509927 484.986946,211.481461 L483.966496,210.480122 C483.783828,210.305455 483.603383,210.133898 483.420715,209.954342 C481.216703,207.880553 479.177581,209.368116 477.060681,212.665912 C474.966003,215.928151 474.275777,217.910829 474.270444,217.926829 C473.322883,220.921067 475.110893,224.58242 475.863341,225.841983 C478.464688,230.223339 479.478472,232.060683 485.254947,237.745158 C490.939867,243.521633 492.776765,244.535416 497.158122,247.136764 C498.417685,247.889212 502.078593,249.677222 505.072832,248.730106 C505.088832,248.724328 507.071509,248.034546 510.333749,245.939868 C513.631544,243.822524 515.119552,241.783402 513.045763,239.57939 L513.045763,239.57939 Z" id="Shape"></path>
            </g>
        </g>
    </g>
</svg>