<?xml version="1.0" encoding="UTF-8" standalone="no"?>
<svg width="42px" height="50px" viewBox="0 0 42 50" version="1.1" xmlns="http://www.w3.org/2000/svg" xmlns:xlink="http://www.w3.org/1999/xlink">
    <!-- Generator: Sketch 39.1 (31720) - http://www.bohemiancoding.com/sketch -->
    <title>Shape</title>
    <desc>Created with Sketch.</desc>
    <defs></defs>
    <g id="CRM_0722" stroke="none" stroke-width="1" fill="none" fill-rule="evenodd">
        <g id="CRM-page" transform="translate(-355.000000, -1248.000000)" fill="#00A1FF">
            <g id="Tab-Bar-Copy-3" transform="translate(0.000000, 1237.000000)">
                <path d="M365.032245,25.1946718 C365.124161,26.2294853 365.331483,27.2518498 365.650655,28.2442175 C365.91446,28.8816738 366.373166,29.4275522 366.96642,29.8100298 C367.07826,30.4414057 367.203257,30.9654477 367.334834,31.4326659 C367.992716,33.7813843 371.143974,38.4472523 375.347843,38.586155 L376.413612,38.586155 C380.814847,38.5419587 384.005577,33.5351477 384.597671,31.4326659 C384.76872,30.8391725 384.893718,30.2393654 384.972664,29.8100298 C385.579738,29.4313014 386.050615,28.8824024 386.321323,28.2379037 C386.638841,27.2475928 386.843974,26.2272647 386.933154,25.1946718 C387.049728,24.2951244 386.906347,23.3821329 386.518688,22.5555205 C387.222622,15.6672093 384.189784,13.9119842 383.229275,13.5394724 C382.985504,13.4484608 382.762178,13.313434 382.571393,13.1417056 C379.696446,10.4772992 372.532106,10.0542774 369.242693,13.2742945 C368.978936,13.5291656 368.674723,13.742272 368.341394,13.9056705 C367.505883,14.3223786 364.848038,16.1659962 365.446711,22.5555205 C365.060354,23.3825005 364.917028,24.2951417 365.032245,25.1946718 L365.032245,25.1946718 Z M366.946683,23.2058377 C367.072691,23.0472323 367.131453,22.8487221 367.111154,22.6502269 C366.644057,18.1927129 367.887455,15.9071321 369.084801,15.307325 C369.572585,15.062671 370.01672,14.7451214 370.400566,14.3665749 C372.992623,11.8410712 379.130667,12.1504454 381.499044,14.284496 C381.82752,14.5852157 382.211172,14.82497 382.630602,14.991637 C383.130593,15.1873636 385.577916,16.4690567 384.873982,22.6375994 C384.851145,22.8353286 384.907599,23.0339855 385.031873,23.1932102 C385.317759,23.784277 385.41614,24.443 385.314763,25.0873379 C385.237825,25.9619073 385.070335,26.8269508 384.814772,27.6696654 C384.639321,28.0852461 384.308516,28.4229872 383.887158,28.6167293 C383.640538,28.728958 383.468009,28.9513059 383.42664,29.2102227 C383.327807,29.8271273 383.193837,30.438373 383.025332,31.0412128 C382.525341,32.8216929 379.663552,37.0014015 376.446507,37.0329702 L375.439946,37.0329702 C372.051851,36.9256363 369.4269,32.7017315 368.953225,31.0412128 C368.788086,30.4379925 368.656325,29.8268078 368.558495,29.2102227 C368.515105,28.9536599 368.342868,28.7340505 368.097978,28.6230431 C367.678771,28.4315764 367.349976,28.0957437 367.176942,27.6822929 C366.918549,26.8356362 366.748852,25.9663429 366.670372,25.0873379 L366.670372,25.0873379 C366.566829,24.4477457 366.662976,23.79305 366.946683,23.2058377 L366.946683,23.2058377 Z M388.150237,42.3175867 C387.400251,42.02084 385.972645,41.496798 385.972645,41.496798 C385.280656,41.2147736 384.647637,40.8147551 384.104259,40.316125 L382.788494,39.2301584 C382.77399,39.1993225 382.748258,39.1746269 382.716127,39.1607071 C381.946404,39.1607071 378.360945,42.3175867 376.439928,42.3491555 L375.413631,42.3491555 C373.512351,42.2860179 369.972943,39.1480796 369.20322,39.1480796 C369.165244,39.1455198 369.127659,39.1567921 369.097959,39.1796484 L367.782194,40.3224388 C367.239354,40.8233239 366.6063,41.2255029 365.913808,41.5094255 C365.913808,41.5094255 364.598043,42.0018987 363.834899,42.2986454 C358.861307,44.2559107 353.157466,46.4846677 355.571894,55.7722074 C356.835029,60.10976 371.426863,61 375.262318,61 L376.735975,61 C380.578009,61 395.156685,60.1160737 396.426399,55.7722074 C398.840827,46.4846677 393.163301,44.2559107 388.150237,42.3175867 L388.150237,42.3175867 Z M375.762309,47.368594 L375.966252,47.368594 L376.176775,47.368594 L378.150422,54.8882811 C378.174446,55.0138261 378.117328,55.1409014 378.005688,55.2102829 L376.393876,56.4162109 C376.164073,56.5752896 375.853956,56.5752896 375.624153,56.4162109 L373.972868,55.153459 C373.864807,55.0845077 373.81036,54.9600954 373.834713,54.8377711 L375.762309,47.368594 Z M375.966252,43.9275952 L376.472822,43.9275952 C376.797642,43.9184806 377.120135,43.8718437 377.43333,43.7886925 L376.689923,45.1335232 C376.576254,45.441339 376.313674,45.6768538 375.985989,45.7648992 C375.65745,45.6758042 375.393272,45.44105 375.275476,45.1335232 L374.57812,43.8265751 C374.830164,43.888715 375.087992,43.9267827 375.347843,43.9402228 L375.966252,43.9402228 L375.966252,43.9275952 Z M394.840902,55.3618131 C394.57117,56.2078568 392.413315,57.54006 387.248938,58.4618688 C383.773076,59.0546359 380.252805,59.3755874 376.722817,59.4215602 L375.262318,59.4215602 C371.732331,59.3755874 368.212059,59.0546359 364.736198,58.4618688 C359.578399,57.54006 357.433702,56.2078568 357.16397,55.3618131 C355.111377,47.4317316 359.446822,45.7270166 364.473045,43.75081 C365.196716,43.4666908 366.512481,42.9805314 366.525638,42.9742176 C367.422039,42.6155153 368.240853,42.0994841 368.940067,41.4526017 L369.433479,41.0169523 L370.20978,41.5283668 C370.907136,41.9955849 371.565018,42.4186068 372.183428,42.7911186 L373.814977,45.846978 C373.942759,46.0888417 374.099519,46.3155662 374.282073,46.5225503 L372.249216,54.4021217 C372.08492,55.1095419 372.355661,55.844918 372.946572,56.2962494 L374.597857,57.5590013 C375.424672,58.1806641 376.586778,58.1806641 377.413594,57.5590013 L379.025406,56.3530733 C379.650934,55.8996437 379.937551,55.1339103 379.755656,54.4021217 L377.683326,46.5225503 C377.860939,46.3292727 378.01541,46.117491 378.143844,45.8911743 L379.854338,42.7342948 C380.446432,42.387038 381.071421,41.9892712 381.729303,41.5536218 L382.499026,41.0485211 L382.97928,41.4526017 C383.676963,42.0889204 384.49102,42.596203 385.380551,42.9489626 C385.380551,42.9489626 386.78842,43.4730046 387.538406,43.7634375 C392.558049,45.7270166 396.893495,47.4254178 394.840902,55.3618131 L394.840902,55.3618131 Z" id="Shape"></path>
            </g>
        </g>
    </g>
</svg>