
<svg width="38px" height="38px" viewBox="311 187 38 38" version="1.1" xmlns="http://www.w3.org/2000/svg" xmlns:xlink="http://www.w3.org/1999/xlink">
    <!-- Generator: Sketch 41.2 (35397) - http://www.bohemiancoding.com/sketch -->
    <desc>Created with Sketch.</desc>
    <defs></defs>
    <g id="Group" stroke="none" stroke-width="1" fill="none" fill-rule="evenodd" transform="translate(311.000000, 187.000000)">
        <path d="M14.907875,14.570625 C14.907875,14.89125 14.6525625,15.140625 14.337875,15.140625 C14.024375,15.140625 13.767875,14.89125 13.767875,14.570625 C13.767875,13.311875 14.2785,12.171875 15.102625,11.3525 L15.140625,11.316875 C15.9635625,10.509375 17.0893125,10.010625 18.3266875,10.010625 C19.5830625,10.010625 20.7230625,10.52125 21.548375,11.3525 L21.5519375,11.3525 C22.37725,12.18375 22.8866875,13.32375 22.8866875,14.570625 C22.8866875,14.89125 22.631375,15.140625 22.3166875,15.140625 C22.0031875,15.140625 21.7466875,14.89125 21.7466875,14.570625 C21.7466875,13.6325 21.3643125,12.7775 20.748,12.16 L20.7444375,12.16 C20.1293125,11.5425 19.273125,11.150625 18.3266875,11.150625 C17.396875,11.150625 16.5525625,11.51875 15.938625,12.124375 L15.9089375,12.16 C15.2914375,12.7775 14.907875,13.6325 14.907875,14.570625 L14.907875,14.570625 Z" id="Shape" fill="#00A1FF"></path>
        <path d="M13.1444375,23.120625 C13.1444375,22.811875 13.4009375,22.550625 13.715625,22.550625 C14.029125,22.550625 14.2844375,22.811875 14.2844375,23.120625 C14.2844375,24.225 14.7309375,25.2225 15.4505625,25.946875 L15.454125,25.946875 C16.1725625,26.67125 17.17125,27.110625 18.27325,27.110625 C19.37525,27.110625 20.3739375,26.67125 21.09475,25.946875 L21.0935625,25.946875 C21.8155625,25.2225 22.2620625,24.225 22.2620625,23.120625 C22.2620625,22.028125 21.8155625,21.030625 21.09475,20.30625 L21.068625,20.2825 C20.349,19.57 19.3621875,19.1425 18.27325,19.1425 C17.9585625,19.1425 17.70325,18.88125 17.70325,18.5725 C17.70325,18.251875 17.9585625,17.990625 18.27325,17.990625 C19.6709375,17.990625 20.9391875,18.560625 21.86425,19.463125 L21.9010625,19.49875 C22.8285,20.425 23.4020625,21.7075 23.4020625,23.120625 C23.4020625,24.545625 22.8273125,25.828125 21.899875,26.754375 L21.8986875,26.754375 L21.8975,26.754375 C20.9700625,27.680625 19.6875625,28.250625 18.27325,28.250625 C16.8613125,28.250625 15.58,27.680625 14.6501875,26.754375 L14.6501875,26.754375 L14.649,26.754375 L14.6478125,26.754375 C13.7191875,25.81625 13.1444375,24.53375 13.1444375,23.120625 L13.1444375,23.120625 Z" id="Shape" fill="#00A1FF"></path>
        <path d="M17.7555,7.505 C17.7555,7.19625 18.0108125,6.935 18.3255,6.935 C18.6401875,6.935 18.8955,7.19625 18.8955,7.505 L18.8955,10.580625 C18.8955,10.90125 18.6401875,11.150625 18.3255,11.150625 C18.0108125,11.150625 17.7555,10.90125 17.7555,10.580625 L17.7555,7.505 L17.7555,7.505 Z" id="Shape" fill="#00A1FF"></path>
        <path d="M17.70325,27.680625 C17.70325,27.371875 17.9585625,27.110625 18.27325,27.110625 C18.58675,27.110625 18.84325,27.371875 18.84325,27.680625 L18.84325,30.3525 C18.84325,30.673125 18.58675,30.9225 18.27325,30.9225 C17.9585625,30.9225 17.70325,30.673125 17.70325,30.3525 L17.70325,27.680625 L17.70325,27.680625 Z" id="Shape" fill="#00A1FF"></path>
        <path d="M13.767875,14.5825 C13.767875,14.261875 14.024375,14.0125 14.337875,14.0125 C14.6525625,14.0125 14.907875,14.261875 14.907875,14.5825 C14.907875,15.520625 15.2914375,16.375625 15.9089375,16.993125 L15.938625,17.02875 C16.5525625,17.6225 17.396875,17.990625 18.3266875,17.990625 C18.641375,17.990625 18.8966875,18.251875 18.8966875,18.560625 C18.8966875,18.88125 18.641375,19.1425 18.3266875,19.1425 C17.0893125,19.1425 15.9635625,18.64375 15.140625,17.83625 L15.102625,17.800625 C14.2785,16.98125 13.767875,15.84125 13.767875,14.5825 L13.767875,14.5825 Z" id="Shape" fill="#00A1FF"></path>
        <path d="M35.9955,19.130625 L35.9955,19.130625 C35.9955,14.41625 34.0800625,10.14125 30.9878125,7.041875 C27.8908125,3.9425 23.6158125,2.030625 18.897875,2.030625 L18.897875,2.030625 L18.8966875,2.030625 C14.1751875,2.030625 9.899,3.954375 6.8055625,7.041875 C3.712125,10.14125 1.7966875,14.41625 1.7966875,19.130625 C1.7966875,23.856875 3.712125,28.131875 6.8055625,31.219375 C9.899,34.31875 14.1751875,36.230625 18.8966875,36.230625 L18.897875,36.230625 C23.6181875,36.230625 27.8931875,34.31875 30.9878125,31.219375 C34.083625,28.131875 35.997875,23.856875 35.997875,19.130625 L35.9955,19.130625 L35.9955,19.130625 Z M37.1355,19.130625 L37.1355,19.130625 L37.133125,19.130625 C37.133125,24.1775 35.093,28.7375 31.794125,32.026875 C28.492875,35.328125 23.9340625,37.370625 18.897875,37.370625 L18.8966875,37.370625 C13.8593125,37.370625 9.2993125,35.328125 5.99925,32.026875 C2.698,28.725625 0.6566875,24.165625 0.6566875,19.130625 C0.6566875,14.095625 2.698,9.535625 5.99925,6.234375 C9.2993125,2.933125 13.8593125,0.890625 18.8966875,0.890625 L18.897875,0.9025 C23.9340625,0.9025 28.49525,2.933125 31.794125,6.234375 C35.093,9.535625 37.1355,14.095625 37.1355,19.130625 L37.1355,19.130625 Z" id="Shape" fill="#00A1FF"></path>
    </g>
</svg>