
<svg width="34px" height="34px" viewBox="513 154 34 34" version="1.1" xmlns="http://www.w3.org/2000/svg" xmlns:xlink="http://www.w3.org/1999/xlink">
    <!-- Generator: Sketch 41.2 (35397) - http://www.bohemiancoding.com/sketch -->
    <desc>Created with Sketch.</desc>
    <defs></defs>
    <g id="pencil" stroke="none" stroke-width="1" fill="none" fill-rule="evenodd" transform="translate(513.000000, 154.000000)">
        <path d="M0.844205937,33.0643428 L3.69486255,21.6593778 L21.0466854,4.30872421 L29.5998245,12.8618633 L12.2491709,30.2136862 L0.844205937,33.0643428 L0.844205937,33.0643428 Z M5.65921986,22.7725136 L3.83283527,30.0757135 L11.1360351,28.2493289 L26.5246699,12.8618633 L21.0466854,7.3838788 L5.65921986,22.7725136 L5.65921986,22.7725136 Z" id="Fill-168" fill="#4A4A4A"></path>
        <path d="M10.3491229,29.5670852 C9.61015041,26.6006718 7.30787688,24.2983983 4.3414635,23.5594258 L4.86879989,21.448911 C8.61627916,22.3831499 11.5253988,25.2922696 12.4596378,29.0397488 L10.3491229,29.5670852" id="Fill-169" fill="#4A4A4A"></path>
        <polyline id="Fill-170" fill="#4A4A4A" points="10.1234557 25.3238396 8.58470913 23.785093 23.785093 8.58470913 25.3238396 10.1234557 10.1234557 25.3238396"></polyline>
        <path d="M2.3385206,31.5700281 L5.73171399,30.7223144 C5.41835223,29.4700366 4.4385121,28.4901965 3.18623432,28.1768347 L2.3385206,31.5700281" id="Fill-171" fill="#4A4A4A"></path>
        <path d="M30.4007678,12.06092 L21.8476287,3.5077809 L25.2548532,0.100556386 L25.7868667,0.171881264 C29.9166941,0.722602866 33.1859459,3.99185467 33.7366675,8.12168205 L33.8079923,8.65369549 L30.4007678,12.06092 L30.4007678,12.06092 Z M24.9227833,3.5077809 L30.4007678,8.98576541 L31.4928569,7.89367629 C30.9175809,5.15059163 28.7579571,2.99096785 26.0148724,2.41569178 L24.9227833,3.5077809 L24.9227833,3.5077809 Z" id="Fill-172" fill="#4A4A4A"></path>
    </g>
</svg>