<?xml version="1.0" encoding="UTF-8" standalone="no"?>
<svg width="41px" height="42px" viewBox="0 0 41 42" version="1.1" xmlns="http://www.w3.org/2000/svg" xmlns:xlink="http://www.w3.org/1999/xlink">
    <!-- Generator: Sketch 3.8.3 (29802) - http://www.bohemiancoding.com/sketch -->
    <title>4</title>
    <desc>Created with Sketch.</desc>
    <defs></defs>
    <g id="Page-_-UI" stroke="none" stroke-width="1" fill="none" fill-rule="evenodd">
        <g id="gateway" transform="translate(-623.000000, -404.000000)" stroke-width="2">
            <g id="shortcut-feature" transform="translate(-1.000000, 360.000000)">
                <g id="4" transform="translate(625.000000, 45.000000)">
                    <path d="M17,9.5 C17,11.985 13.194,14 8.5,14 C3.806,14 0,11.985 0,9.5" id="Ellipse-7" stroke="#FFFFFF"></path>
                    <path d="M17,14.5 C17,16.985 13.194,19 8.5,19 C3.806,19 0,16.985 0,14.5" id="Ellipse-7-copy-2" stroke="#FFFFFF"></path>
                    <path d="M17,19.5 C17,21.985 13.194,24 8.5,24 C3.806,24 0,21.985 0,19.5" id="Ellipse-7-copy-3" stroke="#FFFFFF"></path>
                    <path d="M17,24.5 C17,26.985 13.194,29 8.5,29 C3.806,29 0,26.985 0,24.5" id="Ellipse-7-copy-4" stroke="#FFFFFF"></path>
                    <path d="M17,29.5 C17,31.985 13.194,34 8.5,34 C3.806,34 0,31.985 0,29.5" id="Ellipse-7-copy-5" stroke="#FFFFFF"></path>
                    <path d="M17,34.5 C17,36.985 13.194,39 8.5,39 C3.806,39 0,36.985 0,34.5" id="Ellipse-7-copy-51" stroke="#FFFFFF"></path>
                    <path d="M8.5,0 C13.194,0 17,2.015 17,4.5 C17,6.985 13.194,9 8.5,9 C3.806,9 0,6.985 0,4.5 C0,2.015 3.806,0 8.5,0 L8.5,0 Z" id="Ellipse-7-copy" stroke="#3675FA"></path>
                    <path d="M39,20.5 C39,22.985 35.194,25 30.5,25 C25.806,25 22,22.985 22,20.5" id="Ellipse-7-copy-6" stroke="#FFFFFF"></path>
                    <path d="M39,25.5 C39,27.985 35.194,30 30.5,30 C25.806,30 22,27.985 22,25.5" id="Ellipse-7-copy-61" stroke="#FFFFFF"></path>
                    <path d="M39,30.5 C39,32.985 35.194,35 30.5,35 C25.806,35 22,32.985 22,30.5" id="Ellipse-7-copy-62" stroke="#FFFFFF"></path>
                    <path d="M39,35.5 C39,37.985 35.194,40 30.5,40 C25.806,40 22,37.985 22,35.5" id="Ellipse-7-copy-63" stroke="#FFFFFF"></path>
                    <path d="M30.5,11 C35.194,11 39,13.015 39,15.5 C39,17.985 35.194,20 30.5,20 C25.806,20 22,17.985 22,15.5 C22,13.015 25.806,11 30.5,11 L30.5,11 Z" id="Ellipse-7-copy-64" stroke="#3675FA"></path>
                </g>
            </g>
        </g>
    </g>
</svg>