<?xml version="1.0" encoding="UTF-8" standalone="no"?>
<svg width="43px" height="30px" viewBox="0 0 43 30" version="1.1" xmlns="http://www.w3.org/2000/svg" xmlns:xlink="http://www.w3.org/1999/xlink">
    <!-- Generator: Sketch 3.8.3 (29802) - http://www.bohemiancoding.com/sketch -->
    <title>2</title>
    <desc>Created with Sketch.</desc>
    <defs></defs>
    <g id="Page-_-UI" stroke="none" stroke-width="1" fill="none" fill-rule="evenodd">
        <g id="gateway" transform="translate(-286.000000, -410.000000)">
            <g id="shortcut-feature" transform="translate(-1.000000, 360.000000)">
                <g id="2" transform="translate(288.000000, 51.000000)">
                    <rect id="Rectangle-4" stroke="#FFFFFF" stroke-width="2" x="0" y="8" width="41" height="20"></rect>
                    <path d="M2,4 L39,4" id="Rectangle-4-copy" stroke="#FFFFFF" stroke-width="2"></path>
                    <path d="M4,0 L37,0" id="Rectangle-4-copy-2" stroke="#FFFFFF" stroke-width="2"></path>
                    <path d="M21,23.077 L20.934,23.077 L20.869,23.075 L20.804,23.073 L20.739,23.07 L20.674,23.067 L20.609,23.062 L20.545,23.057 L20.481,23.051 L20.417,23.044 L20.353,23.036 L20.29,23.028 L20.227,23.019 L20.164,23.008 L20.101,22.998 L20.039,22.986 L19.977,22.974 L19.915,22.961 L19.853,22.947 L19.792,22.932 L19.731,22.917 L19.671,22.901 L19.61,22.884 L19.55,22.867 L19.49,22.849 L19.431,22.83 L19.372,22.81 L19.313,22.79 L19.254,22.769 L19.196,22.747 L19.138,22.725 L19.081,22.702 L19.024,22.678 L18.967,22.654 L18.911,22.629 L18.855,22.603 L18.799,22.576 L18.689,22.522 L18.58,22.464 L18.473,22.404 L18.367,22.342 L18.264,22.277 L18.161,22.21 L18.061,22.14 L17.962,22.068 L17.866,21.994 L17.771,21.918 L17.678,21.839 L17.586,21.758 L17.497,21.675 L17.41,21.59 L17.325,21.503 L17.242,21.414 L17.161,21.323 L17.082,21.229 L17.006,21.134 L16.932,21.038 L16.86,20.939 L16.79,20.839 L16.723,20.736 L16.658,20.633 L16.596,20.527 L16.536,20.42 L16.478,20.311 L16.424,20.201 L16.397,20.145 L16.372,20.089 L16.346,20.033 L16.322,19.976 L16.298,19.919 L16.275,19.862 L16.253,19.804 L16.231,19.746 L16.21,19.687 L16.19,19.628 L16.17,19.569 L16.151,19.51 L16.133,19.45 L16.116,19.39 L16.099,19.329 L16.083,19.269 L16.068,19.208 L16.053,19.147 L16.039,19.085 L16.026,19.023 L16.014,18.961 L16.002,18.899 L15.992,18.836 L15.982,18.773 L15.972,18.71 L15.964,18.647 L15.956,18.583 L15.949,18.519 L15.943,18.455 L15.938,18.391 L15.933,18.326 L15.93,18.261 L15.927,18.196 L15.925,18.131 L15.923,18.066 L15.923,18 L15.923,17.934 L15.925,17.869 L15.927,17.804 L15.93,17.739 L15.933,17.674 L15.938,17.609 L15.943,17.545 L15.949,17.481 L15.956,17.417 L15.964,17.353 L15.972,17.29 L15.982,17.227 L15.992,17.164 L16.002,17.101 L16.014,17.039 L16.026,16.977 L16.039,16.915 L16.053,16.853 L16.068,16.792 L16.083,16.731 L16.099,16.67 L16.116,16.61 L16.133,16.55 L16.151,16.49 L16.17,16.431 L16.19,16.372 L16.21,16.313 L16.231,16.254 L16.253,16.196 L16.275,16.138 L16.298,16.081 L16.322,16.024 L16.346,15.967 L16.372,15.911 L16.397,15.855 L16.424,15.799 L16.478,15.689 L16.536,15.58 L16.596,15.473 L16.658,15.367 L16.723,15.264 L16.79,15.161 L16.86,15.061 L16.932,14.962 L17.006,14.866 L17.082,14.771 L17.161,14.678 L17.242,14.586 L17.325,14.497 L17.41,14.41 L17.497,14.325 L17.586,14.242 L17.678,14.161 L17.771,14.082 L17.866,14.006 L17.962,13.932 L18.061,13.86 L18.161,13.79 L18.264,13.723 L18.367,13.658 L18.473,13.596 L18.58,13.536 L18.689,13.479 L18.799,13.424 L18.855,13.397 L18.911,13.372 L18.967,13.347 L19.024,13.322 L19.081,13.298 L19.138,13.275 L19.196,13.253 L19.254,13.231 L19.313,13.21 L19.372,13.19 L19.431,13.17 L19.49,13.151 L19.55,13.133 L19.61,13.116 L19.671,13.099 L19.731,13.083 L19.792,13.068 L19.853,13.053 L19.915,13.039 L19.977,13.026 L20.039,13.014 L20.101,13.002 L20.164,12.992 L20.227,12.982 L20.29,12.972 L20.353,12.964 L20.417,12.956 L20.481,12.949 L20.545,12.943 L20.609,12.938 L20.674,12.933 L20.739,12.93 L20.804,12.927 L20.869,12.925 L20.934,12.924 L21,12.923 L21.066,12.924 L21.131,12.925 L21.196,12.927 L21.261,12.93 L21.326,12.933 L21.391,12.938 L21.455,12.943 L21.519,12.949 L21.583,12.956 L21.647,12.964 L21.71,12.972 L21.773,12.982 L21.836,12.992 L21.899,13.002 L21.961,13.014 L22.023,13.026 L22.085,13.039 L22.147,13.053 L22.208,13.068 L22.269,13.083 L22.329,13.099 L22.39,13.116 L22.45,13.133 L22.51,13.151 L22.569,13.17 L22.628,13.19 L22.687,13.21 L22.746,13.231 L22.804,13.253 L22.862,13.275 L22.919,13.298 L22.976,13.322 L23.033,13.347 L23.089,13.372 L23.145,13.397 L23.201,13.424 L23.311,13.479 L23.42,13.536 L23.527,13.596 L23.633,13.658 L23.736,13.723 L23.839,13.79 L23.939,13.86 L24.038,13.932 L24.134,14.006 L24.229,14.082 L24.322,14.161 L24.414,14.242 L24.503,14.325 L24.59,14.41 L24.675,14.497 L24.758,14.586 L24.839,14.678 L24.918,14.771 L24.994,14.866 L25.068,14.962 L25.14,15.061 L25.21,15.161 L25.277,15.264 L25.342,15.367 L25.404,15.473 L25.464,15.58 L25.522,15.689 L25.576,15.799 L25.603,15.855 L25.628,15.911 L25.654,15.967 L25.678,16.024 L25.702,16.081 L25.725,16.138 L25.747,16.196 L25.769,16.254 L25.79,16.313 L25.81,16.372 L25.83,16.431 L25.849,16.49 L25.867,16.55 L25.884,16.61 L25.901,16.67 L25.917,16.731 L25.932,16.792 L25.947,16.853 L25.961,16.915 L25.974,16.977 L25.986,17.039 L25.998,17.101 L26.008,17.164 L26.018,17.227 L26.028,17.29 L26.036,17.353 L26.044,17.417 L26.051,17.481 L26.057,17.545 L26.062,17.609 L26.067,17.674 L26.07,17.739 L26.073,17.804 L26.075,17.869 L26.076,17.934 L26.077,18 L26.076,18.066 L26.075,18.131 L26.073,18.196 L26.07,18.261 L26.067,18.326 L26.062,18.391 L26.057,18.455 L26.051,18.519 L26.044,18.583 L26.036,18.647 L26.028,18.71 L26.018,18.773 L26.008,18.836 L25.998,18.899 L25.986,18.961 L25.974,19.023 L25.961,19.085 L25.947,19.147 L25.932,19.208 L25.917,19.269 L25.901,19.329 L25.884,19.39 L25.867,19.45 L25.849,19.51 L25.83,19.569 L25.81,19.628 L25.79,19.687 L25.769,19.746 L25.747,19.804 L25.725,19.862 L25.702,19.919 L25.678,19.976 L25.654,20.033 L25.628,20.089 L25.603,20.145 L25.576,20.201 L25.522,20.311 L25.464,20.42 L25.404,20.527 L25.342,20.633 L25.277,20.736 L25.21,20.839 L25.14,20.939 L25.068,21.038 L24.994,21.134 L24.918,21.229 L24.839,21.323 L24.758,21.414 L24.675,21.503 L24.59,21.59 L24.503,21.675 L24.414,21.758 L24.322,21.839 L24.229,21.918 L24.134,21.994 L24.038,22.068 L23.939,22.14 L23.839,22.21 L23.736,22.277 L23.633,22.342 L23.527,22.404 L23.42,22.464 L23.311,22.522 L23.201,22.576 L23.145,22.603 L23.089,22.629 L23.033,22.654 L22.976,22.678 L22.919,22.702 L22.862,22.725 L22.804,22.747 L22.746,22.769 L22.687,22.79 L22.628,22.81 L22.569,22.83 L22.51,22.849 L22.45,22.867 L22.39,22.884 L22.329,22.901 L22.269,22.917 L22.208,22.932 L22.147,22.947 L22.085,22.961 L22.023,22.974 L21.961,22.986 L21.899,22.998 L21.836,23.008 L21.773,23.019 L21.71,23.028 L21.647,23.036 L21.583,23.044 L21.519,23.051 L21.455,23.057 L21.391,23.062 L21.326,23.067 L21.261,23.07 L21.196,23.073 L21.131,23.075 L21.066,23.077 L21,23.077 L21,23.077 Z M21,21.077 L21.04,21.077 L21.081,21.076 L21.12,21.075 L21.16,21.073 L21.2,21.071 L21.238,21.068 L21.278,21.065 L21.317,21.061 L21.356,21.057 L21.394,21.052 L21.433,21.047 L21.471,21.041 L21.509,21.035 L21.547,21.029 L21.585,21.022 L21.622,21.014 L21.659,21.007 L21.697,20.998 L21.734,20.989 L21.77,20.98 L21.807,20.971 L21.844,20.96 L21.88,20.95 L21.916,20.939 L21.951,20.928 L21.987,20.916 L22.023,20.904 L22.058,20.891 L22.093,20.878 L22.128,20.864 L22.163,20.85 L22.197,20.836 L22.231,20.821 L22.266,20.806 L22.299,20.791 L22.327,20.777 L22.399,20.741 L22.465,20.707 L22.53,20.67 L22.594,20.633 L22.657,20.593 L22.719,20.552 L22.78,20.51 L22.84,20.467 L22.899,20.421 L22.956,20.375 L23.013,20.327 L23.068,20.278 L23.123,20.227 L23.176,20.176 L23.227,20.123 L23.278,20.068 L23.327,20.013 L23.375,19.956 L23.421,19.899 L23.466,19.84 L23.51,19.78 L23.553,19.719 L23.593,19.657 L23.632,19.594 L23.67,19.53 L23.707,19.465 L23.741,19.399 L23.777,19.328 L23.79,19.3 L23.806,19.266 L23.821,19.231 L23.836,19.197 L23.85,19.163 L23.864,19.128 L23.878,19.093 L23.891,19.058 L23.903,19.023 L23.915,18.988 L23.927,18.952 L23.939,18.915 L23.95,18.879 L23.96,18.844 L23.97,18.807 L23.98,18.77 L23.989,18.734 L23.998,18.697 L24.006,18.659 L24.014,18.622 L24.022,18.585 L24.029,18.547 L24.035,18.509 L24.041,18.471 L24.047,18.433 L24.052,18.394 L24.057,18.356 L24.061,18.317 L24.065,18.278 L24.068,18.238 L24.071,18.2 L24.073,18.16 L24.075,18.12 L24.076,18.08 L24.077,18.04 L24.077,18 L24.077,17.96 L24.076,17.919 L24.075,17.88 L24.073,17.84 L24.071,17.8 L24.068,17.762 L24.065,17.722 L24.061,17.683 L24.057,17.644 L24.052,17.606 L24.047,17.567 L24.041,17.529 L24.035,17.491 L24.029,17.453 L24.022,17.415 L24.014,17.378 L24.006,17.341 L23.998,17.303 L23.989,17.266 L23.98,17.23 L23.97,17.193 L23.96,17.156 L23.95,17.12 L23.939,17.084 L23.927,17.048 L23.915,17.012 L23.903,16.977 L23.891,16.942 L23.878,16.907 L23.864,16.872 L23.85,16.837 L23.836,16.803 L23.821,16.769 L23.806,16.734 L23.79,16.7 L23.777,16.672 L23.741,16.601 L23.707,16.535 L23.67,16.47 L23.633,16.406 L23.593,16.343 L23.553,16.281 L23.51,16.22 L23.467,16.16 L23.421,16.101 L23.375,16.044 L23.327,15.987 L23.278,15.932 L23.227,15.877 L23.176,15.824 L23.123,15.773 L23.068,15.722 L23.013,15.673 L22.956,15.625 L22.899,15.579 L22.84,15.534 L22.78,15.49 L22.719,15.448 L22.657,15.407 L22.594,15.367 L22.53,15.33 L22.465,15.293 L22.399,15.259 L22.328,15.223 L22.3,15.21 L22.266,15.194 L22.231,15.179 L22.197,15.164 L22.163,15.15 L22.128,15.136 L22.093,15.122 L22.058,15.109 L22.023,15.097 L21.987,15.084 L21.951,15.073 L21.916,15.061 L21.88,15.05 L21.844,15.04 L21.807,15.029 L21.771,15.02 L21.734,15.011 L21.696,15.002 L21.66,14.994 L21.622,14.986 L21.585,14.978 L21.547,14.971 L21.509,14.965 L21.471,14.959 L21.433,14.953 L21.394,14.948 L21.356,14.943 L21.317,14.939 L21.278,14.935 L21.239,14.932 L21.2,14.929 L21.16,14.927 L21.12,14.925 L21.081,14.924 L21.04,14.923 L21,14.923 L20.96,14.923 L20.92,14.924 L20.88,14.925 L20.84,14.927 L20.8,14.929 L20.761,14.932 L20.722,14.935 L20.683,14.939 L20.644,14.943 L20.606,14.948 L20.567,14.953 L20.529,14.959 L20.491,14.965 L20.453,14.971 L20.415,14.978 L20.378,14.986 L20.34,14.994 L20.304,15.002 L20.266,15.011 L20.229,15.02 L20.193,15.03 L20.157,15.04 L20.12,15.05 L20.084,15.061 L20.049,15.073 L20.013,15.084 L19.977,15.097 L19.942,15.109 L19.907,15.122 L19.872,15.136 L19.837,15.15 L19.803,15.164 L19.769,15.179 L19.734,15.194 L19.7,15.21 L19.672,15.223 L19.601,15.259 L19.535,15.293 L19.47,15.33 L19.406,15.367 L19.343,15.407 L19.281,15.448 L19.22,15.49 L19.16,15.534 L19.101,15.579 L19.044,15.625 L18.987,15.673 L18.931,15.722 L18.878,15.772 L18.825,15.824 L18.773,15.877 L18.722,15.932 L18.673,15.987 L18.625,16.044 L18.578,16.101 L18.533,16.16 L18.49,16.22 L18.447,16.281 L18.407,16.343 L18.367,16.406 L18.33,16.47 L18.293,16.535 L18.259,16.601 L18.223,16.672 L18.21,16.701 L18.194,16.734 L18.179,16.768 L18.164,16.803 L18.15,16.838 L18.136,16.872 L18.122,16.907 L18.109,16.942 L18.097,16.977 L18.084,17.013 L18.073,17.048 L18.061,17.084 L18.05,17.12 L18.04,17.156 L18.029,17.193 L18.02,17.229 L18.011,17.266 L18.002,17.304 L17.994,17.34 L17.986,17.378 L17.978,17.415 L17.971,17.453 L17.965,17.491 L17.959,17.529 L17.953,17.567 L17.948,17.605 L17.943,17.644 L17.939,17.683 L17.935,17.722 L17.932,17.761 L17.929,17.801 L17.927,17.84 L17.925,17.88 L17.924,17.92 L17.923,17.96 L17.923,18 L17.923,18.04 L17.924,18.08 L17.925,18.12 L17.927,18.16 L17.929,18.199 L17.932,18.239 L17.935,18.278 L17.939,18.317 L17.943,18.356 L17.948,18.395 L17.953,18.433 L17.959,18.471 L17.965,18.509 L17.971,18.547 L17.978,18.585 L17.986,18.622 L17.994,18.66 L18.002,18.696 L18.011,18.734 L18.02,18.771 L18.029,18.807 L18.04,18.844 L18.05,18.879 L18.061,18.915 L18.073,18.952 L18.084,18.987 L18.097,19.023 L18.109,19.058 L18.122,19.093 L18.136,19.128 L18.15,19.162 L18.164,19.197 L18.179,19.232 L18.194,19.266 L18.21,19.299 L18.223,19.328 L18.259,19.399 L18.293,19.465 L18.33,19.53 L18.368,19.594 L18.407,19.657 L18.447,19.719 L18.49,19.78 L18.534,19.84 L18.579,19.899 L18.625,19.956 L18.673,20.013 L18.722,20.068 L18.773,20.123 L18.825,20.176 L18.878,20.228 L18.932,20.278 L18.987,20.327 L19.044,20.375 L19.101,20.422 L19.16,20.467 L19.22,20.51 L19.281,20.552 L19.343,20.593 L19.406,20.633 L19.47,20.67 L19.535,20.707 L19.6,20.741 L19.673,20.777 L19.701,20.791 L19.734,20.806 L19.769,20.821 L19.803,20.836 L19.837,20.85 L19.872,20.864 L19.907,20.878 L19.942,20.891 L19.977,20.904 L20.013,20.916 L20.049,20.928 L20.084,20.939 L20.12,20.95 L20.157,20.96 L20.193,20.971 L20.23,20.98 L20.266,20.989 L20.303,20.998 L20.341,21.007 L20.378,21.014 L20.415,21.022 L20.453,21.029 L20.491,21.035 L20.529,21.041 L20.567,21.047 L20.606,21.052 L20.644,21.057 L20.683,21.061 L20.722,21.065 L20.762,21.068 L20.8,21.071 L20.84,21.073 L20.88,21.075 L20.92,21.076 L20.96,21.077 L21,21.077 L21,21.077 Z" id="Ellipse-5" fill="#3675FA"></path>
                </g>
            </g>
        </g>
    </g>
</svg>