<?xml version="1.0" encoding="UTF-8" standalone="no"?>
<svg width="42px" height="38px" viewBox="0 0 42 38" version="1.1" xmlns="http://www.w3.org/2000/svg" xmlns:xlink="http://www.w3.org/1999/xlink">
    <!-- Generator: Sketch 3.8.3 (29802) - http://www.bohemiancoding.com/sketch -->
    <title>3</title>
    <desc>Created with Sketch.</desc>
    <defs></defs>
    <g id="Page-_-UI" stroke="none" stroke-width="1" fill="none" fill-rule="evenodd">
        <g id="gateway" transform="translate(-467.000000, -405.000000)" stroke-width="2">
            <g id="shortcut-feature" transform="translate(-1.000000, 360.000000)">
                <g id="3" transform="translate(469.000000, 47.000000)">
                    <polyline id="Rectangle-7" stroke="#3675FA" points="14 6 31 0 34 6"></polyline>
                    <polyline id="Rectangle-7-copy" stroke="#3675FA" points="7 7 15 0 18 4"></polyline>
                    <path d="M36,25.419 L36,33 C36,34.105 35.105,35 34,35 L2,35 C0.895,35 0,34.105 0,33 L0,10 C0,8.895 0.895,8 2,8 L34,8 C35.105,8 36,8.895 36,10 L36,18.894" id="Rounded-Rectangle-12" stroke="#FFFFFF"></path>
                    <path d="M34,19 L38,19 C39.105,19 40,19.895 40,21 L40,23 C40,24.105 39.105,25 38,25 L34,25 C32.895,25 32,24.105 32,23 L32,21 C32,19.895 32.895,19 34,19 L34,19 Z" id="Rounded-Rectangle-13" stroke="#FFFFFF"></path>
                </g>
            </g>
        </g>
    </g>
</svg>