<?xml version="1.0" encoding="UTF-8" standalone="no"?>
<svg width="36px" height="41px" viewBox="0 0 36 41" version="1.1" xmlns="http://www.w3.org/2000/svg" xmlns:xlink="http://www.w3.org/1999/xlink">
    <!-- Generator: Sketch 3.8.3 (29802) - http://www.bohemiancoding.com/sketch -->
    <title>1</title>
    <desc>Created with Sketch.</desc>
    <defs></defs>
    <g id="Page-_-UI" stroke="none" stroke-width="1" fill="none" fill-rule="evenodd">
        <g id="gateway" transform="translate(-109.000000, -404.000000)">
            <g id="shortcut-feature" transform="translate(-1.000000, 360.000000)">
                <g id="1" transform="translate(110.000000, 44.000000)">
                    <rect id="Rectangle-11" fill="#FFFFFF" x="7" y="15" width="2" height="18"></rect>
                    <polygon id="Rectangle-11-copy-3" fill="#3675FA" points="1.108 10.866 0.108 9.134 17.892 0.134 18.892 1.866"></polygon>
                    <polygon id="Rectangle-11-copy-4" fill="#3675FA" points="34.892 10.866 17.108 1.866 18.108 0.134 35.892 9.134"></polygon>
                    <path d="M6,13 L10,13 C10.552,13 11,13.448 11,14 C11,14.552 10.552,15 10,15 L6,15 C5.448,15 5,14.552 5,14 C5,13.448 5.448,13 6,13 L6,13 Z" id="Rounded-Rectangle-21" fill="#FFFFFF"></path>
                    <path d="M6,33 L10,33 C10.552,33 11,33.448 11,34 C11,34.552 10.552,35 10,35 L6,35 C5.448,35 5,34.552 5,34 C5,33.448 5.448,33 6,33 L6,33 Z" id="Rounded-Rectangle-21-copy" fill="#FFFFFF"></path>
                    <path d="M4,39 L32,39 C32.552,39 33,39.448 33,40 C33,40.552 32.552,41 32,41 L4,41 C3.448,41 3,40.552 3,40 C3,39.448 3.448,39 4,39 L4,39 Z" id="Rounded-Rectangle-21-copy-4" fill="#FFFFFF"></path>
                    <rect id="Rectangle-11-copy" fill="#FFFFFF" x="17" y="15" width="2" height="18"></rect>
                    <path d="M16,13 L20,13 C20.552,13 21,13.448 21,14 C21,14.552 20.552,15 20,15 L16,15 C15.448,15 15,14.552 15,14 C15,13.448 15.448,13 16,13 L16,13 Z" id="Rounded-Rectangle-21-copy-2" fill="#FFFFFF"></path>
                    <path d="M16,33 L20,33 C20.552,33 21,33.448 21,34 C21,34.552 20.552,35 20,35 L16,35 C15.448,35 15,34.552 15,34 C15,33.448 15.448,33 16,33 L16,33 Z" id="Rounded-Rectangle-21-copy-21" fill="#FFFFFF"></path>
                    <rect id="Rectangle-11-copy-2" fill="#FFFFFF" x="27" y="15" width="2" height="18"></rect>
                    <path d="M26,13 L30,13 C30.552,13 31,13.448 31,14 C31,14.552 30.552,15 30,15 L26,15 C25.448,15 25,14.552 25,14 C25,13.448 25.448,13 26,13 L26,13 Z" id="Rounded-Rectangle-21-copy-3" fill="#FFFFFF"></path>
                    <path d="M26,33 L30,33 C30.552,33 31,33.448 31,34 C31,34.552 30.552,35 30,35 L26,35 C25.448,35 25,34.552 25,34 C25,33.448 25.448,33 26,33 L26,33 Z" id="Rounded-Rectangle-21-copy-31" fill="#FFFFFF"></path>
                </g>
            </g>
        </g>
    </g>
</svg>