
<svg width="41px" height="40px" viewBox="669 8 41 40" version="1.1" xmlns="http://www.w3.org/2000/svg" xmlns:xlink="http://www.w3.org/1999/xlink">
    <!-- Generator: Sketch 39.1 (31720) - http://www.bohemiancoding.com/sketch -->
    <desc>Created with Sketch.</desc>
    <defs></defs>
    <path d="M706.802953,8.01916424 L689.46449,8 L672.738466,8.01916424 C671.104695,8.01916424 669.774055,9.30615496 669.774055,10.8863337 L669.774055,11.8993006 C669.774055,12.8485527 670.248309,13.8107469 671.012572,14.403345 L684.273424,24.7378481 L684.273424,45.2858956 C684.273424,46.8088305 685.479003,48 687.013961,48 C687.731905,48 688.423601,47.7259763 688.963988,47.2354215 L694.201115,42.4568058 C694.859873,41.8515145 695.268252,40.940342 695.268252,40.0674979 L695.268252,24.7759277 L708.482786,14.9446726 C709.279729,14.3520745 709.774055,13.3836581 709.774055,12.4152418 L709.774055,10.8860848 C709.767622,9.30590607 708.443415,8.01891535 706.802953,8.01891535 L706.802953,8.01916424 Z M707.132332,12.4154907 C707.132332,12.5939421 707.013704,12.8231663 706.868828,12.9252097 L692.896723,23.3298987 C692.751847,23.4381642 692.633219,23.6676373 692.633219,23.8396177 L692.633219,40.0677468 C692.633219,40.2397272 692.527715,40.4818935 692.395964,40.6028522 L687.152403,45.387939 L687.020652,45.457876 C686.954776,45.457876 686.915405,45.4003833 686.915405,45.2921178 L686.915405,23.8458399 C686.915405,23.6673884 686.803467,23.4381642 686.658335,23.3298987 L672.672848,12.4219617 C672.534406,12.3136962 672.416035,12.0780009 672.416035,11.9060206 L672.416035,10.8928047 C672.416035,10.7143533 672.56091,10.5742303 672.745414,10.5742303 L689.464747,10.5550661 L690.123505,10.5550661 L706.80321,10.5742303 C706.987714,10.5742303 707.132589,10.7208243 707.132589,10.8928047 L707.132589,12.4157396 L707.132332,12.4154907 Z" id="Shape" stroke="none" fill="#4B4B4B" fill-rule="evenodd"></path>
</svg>