<?xml version="1.0" encoding="UTF-8" standalone="no"?>
<svg width="50px" height="45px" viewBox="0 0 50 45" version="1.1" xmlns="http://www.w3.org/2000/svg" xmlns:xlink="http://www.w3.org/1999/xlink">
    <!-- Generator: Sketch 39.1 (31720) - http://www.bohemiancoding.com/sketch -->
    <title>Combined Shape</title>
    <desc>Created with Sketch.</desc>
    <defs></defs>
    <g id="CRM_0722" stroke="none" stroke-width="1" fill="none" fill-rule="evenodd">
        <g id="CRM-page" transform="translate(-64.000000, -1251.000000)" fill="#00A1FF">
            <g id="Tab-Bar-Copy-3" transform="translate(0.000000, 1237.000000)">
                <path d="M73.409283,58.6428571 C71.1854997,58.6428571 69.3763064,56.8574045 69.3763064,54.6628023 L69.3763064,33.5287111 C69.3763064,33.088517 69.7368545,32.7327001 70.1829017,32.7327001 C70.6289489,32.7327001 70.989497,33.088517 70.989497,33.5287111 L70.989497,54.6628023 C70.989497,55.9794044 72.0751743,57.0508352 73.409283,57.0508352 L104.590645,57.0508352 C105.924754,57.0508352 107.010431,55.9794044 107.010431,54.6628023 L107.010431,33.5287111 C107.010431,33.088517 107.370979,32.7327001 107.817026,32.7327001 C108.263073,32.7327001 108.623622,33.088517 108.623622,33.5287111 L108.623622,54.6628023 C108.623622,56.8574045 106.814428,58.6428571 104.590645,58.6428571 L73.409283,58.6428571 Z M113.192177,27.5204203 C113.064735,27.5204203 112.93568,27.4909679 112.814691,27.427287 L91.2277802,16.110399 C89.8904452,15.4091134 87.6360113,15.4186655 86.3043224,16.1302993 L65.1908832,27.4241029 C64.7996845,27.6334538 64.3092746,27.4901718 64.0979466,27.1041065 C63.8850054,26.7180412 64.0309992,26.2340665 64.4221979,26.0255117 L85.535637,14.731708 C87.3391842,13.7669427 90.1711403,13.7542066 91.9843666,14.7054397 L113.571277,26.0223276 C113.964896,26.2284945 114.114922,26.7100811 113.905208,27.0985344 C113.760021,27.3675862 113.481745,27.5204203 113.192177,27.5204203 Z" id="Combined-Shape"></path>
            </g>
        </g>
    </g>
</svg>