
<svg width="38px" height="41px" viewBox="159 559 38 41" version="1.1" xmlns="http://www.w3.org/2000/svg" xmlns:xlink="http://www.w3.org/1999/xlink">
    <!-- Generator: Sketch 39.1 (31720) - http://www.bohemiancoding.com/sketch -->
    <desc>Created with Sketch.</desc>
    <defs></defs>
    <g id="VIP" stroke="none" stroke-width="1" fill="none" fill-rule="evenodd" transform="translate(159.000000, 559.000000)">
        <path d="M8.02579599,11.3557375 C8.09932864,12.1835882 8.26518679,13.0014798 8.52052364,13.795374 C8.73156824,14.305339 9.09853319,14.7420418 9.57313567,15.0480238 C9.66260769,15.5531246 9.76260583,15.9723582 9.86786703,16.3461327 C10.394173,18.2251074 12.9151788,21.9578018 16.2782743,22.068924 L17.13089,22.068924 C20.6518772,22.0335669 23.2044614,18.0281181 23.6781368,16.3461327 C23.8149764,15.871338 23.9149745,15.3914923 23.9781312,15.0480238 C24.4637906,14.7450411 24.8404921,14.305922 25.0570585,13.790323 C25.3110729,12.9980742 25.4751795,12.1818118 25.5465231,11.3557375 C25.6397827,10.6360995 25.5250779,9.90570633 25.2149503,9.24441641 C25.7780978,3.73376742 23.3518271,2.32958738 22.5834203,2.03157795 C22.3884032,1.95876862 22.2097422,1.85074717 22.0571143,1.71336449 C19.757157,-0.418160605 14.0256845,-0.756578096 11.3941545,1.81943564 C11.1831485,2.02333246 10.9397783,2.1938176 10.6731152,2.32453637 C10.0047066,2.65790286 7.87843031,4.13279699 8.35736878,9.24441641 C8.04828351,9.90600038 7.93362279,10.6361134 8.02579599,11.3557375 L8.02579599,11.3557375 Z M9.55734649,9.76467016 C9.65815245,9.63778585 9.70516249,9.47897764 9.68892299,9.32018152 C9.31524572,5.75417034 10.3099641,3.92570569 11.267841,3.44586 C11.6580678,3.25013682 12.0133764,2.9960971 12.320453,2.69325991 C14.3940987,0.672856977 19.3045338,0.920356336 21.1992355,2.62759681 C21.462016,2.86817253 21.7689375,3.05997602 22.1044818,3.19330963 C22.5044744,3.34989086 24.4623327,4.37524535 23.8991853,9.3100795 C23.8809164,9.4682629 23.9260793,9.62718838 24.0254988,9.75456815 C24.254207,10.2274216 24.3329116,10.7544 24.2518103,11.2698703 C24.1902602,11.9695258 24.0562683,12.6615606 23.8518178,13.3357323 C23.7114565,13.6681969 23.4468125,13.9383897 23.1097263,14.0933834 C22.9124307,14.1831664 22.774407,14.3610447 22.7413121,14.5681781 C22.6622458,15.0617018 22.5550697,15.5506984 22.4202654,16.0329702 C22.0202729,17.4573543 19.7308417,20.8011212 17.1572053,20.8263762 L16.3519571,20.8263762 C13.6414811,20.7405091 11.5415202,17.3613852 11.1625798,16.0329702 C11.0304689,15.550394 10.9250603,15.0614463 10.8467962,14.5681781 C10.8120836,14.3629279 10.674294,14.1872404 10.478382,14.0984344 C10.1430166,13.9452611 9.87998064,13.6765949 9.74155359,13.3458344 C9.53483958,12.668509 9.39908154,11.9730743 9.33629796,11.2698703 L9.33629796,11.2698703 C9.25346355,10.7581966 9.33038064,10.23444 9.55734649,9.76467016 L9.55734649,9.76467016 Z M26.5201893,25.0540693 C25.9202004,24.816672 24.7781164,24.3974384 24.7781164,24.3974384 C24.2245249,24.1718189 23.7181092,23.8518041 23.2834073,23.4529 L22.2307953,22.5841267 C22.2191919,22.559458 22.198606,22.5397016 22.1729016,22.5285657 C21.5571236,22.5285657 18.6887558,25.0540693 17.1519422,25.0793244 L16.3309049,25.0793244 C14.8098805,25.0288143 11.9783541,22.5184637 11.3625761,22.5184637 C11.3321955,22.5164159 11.302127,22.5254337 11.2783671,22.5437187 L10.2257551,23.457951 C9.79148299,23.8586591 9.28504038,24.1804024 8.73104605,24.4075404 C8.73104605,24.4075404 7.67843402,24.801519 7.06791905,25.0389163 C3.0890456,26.6047286 -1.47402753,28.3877342 0.457515539,35.8177659 C1.46802308,39.287808 13.1414904,40 16.2098545,40 L17.3887799,40 C20.4624071,40 32.1253483,39.292859 33.1411189,35.8177659 C35.0726619,28.3877342 30.5306411,26.6047286 26.5201893,25.0540693 L26.5201893,25.0540693 Z M16.609847,29.0948752 L16.7730019,29.0948752 L16.9414198,29.0948752 L18.5203379,35.1106249 C18.5395568,35.2110609 18.4938623,35.3127211 18.4045505,35.3682263 L17.1151008,36.3329687 C16.9312586,36.4602316 16.683165,36.4602316 16.4993228,36.3329687 L15.1782947,35.3227672 C15.0918459,35.2676062 15.0482884,35.1680763 15.0677704,35.0702169 L16.609847,29.0948752 Z M16.7730019,26.3420762 L17.1782575,26.3420762 C17.4381136,26.3347845 17.6961079,26.2974749 17.9466643,26.230954 L17.3519385,27.3068186 C17.2610032,27.5530712 17.050939,27.741483 16.7887911,27.8119193 C16.5259602,27.7406433 16.3146174,27.55284 16.2203806,27.3068186 L15.6624962,26.2612601 C15.864131,26.310972 16.070394,26.3414262 16.2782743,26.3521782 L16.7730019,26.3521782 L16.7730019,26.3420762 Z M31.8727214,35.4894505 C31.6569359,36.1662854 29.9306522,37.232048 25.79915,37.9694951 C23.018461,38.4437087 20.2022439,38.7004699 17.3782538,38.7372482 L16.2098545,38.7372482 C13.3858644,38.7004699 10.5696473,38.4437087 7.78895829,37.9694951 C3.66271915,37.232048 1.94696155,36.1662854 1.73117609,35.4894505 C0.0891013303,29.1453853 3.55745795,27.7816133 7.57843588,26.200648 C8.15737249,25.9733527 9.20998452,25.5844251 9.22051064,25.5793741 C9.93763082,25.2924122 10.5926821,24.8795873 11.1520537,24.3620813 L11.5467832,24.0135618 L12.1678243,24.4226934 C12.7257087,24.796468 13.2520147,25.1348854 13.7467423,25.4328949 L15.0519813,27.8775824 C15.1542074,28.0710734 15.2796148,28.252453 15.4256585,28.4180402 L13.7993729,34.7216973 C13.6679356,35.2876335 13.8845286,35.8759344 14.3572573,36.2369995 L15.6782854,37.247201 C16.3397379,37.7445313 17.2694226,37.7445313 17.9308751,37.247201 L19.2203249,36.2824586 C19.7207471,35.919715 19.9500409,35.3071283 19.8045245,34.7216973 L18.1466606,28.4180402 C18.2887514,28.2634182 18.4123282,28.0939928 18.5150748,27.9129395 L19.8834704,25.3874358 C20.3571459,25.1096304 20.8571366,24.7914169 21.3834426,24.4428974 L21.9992206,24.0388169 L22.383424,24.3620813 C22.9415701,24.8711364 23.5928156,25.2769624 24.3044409,25.5591701 C24.3044409,25.5591701 25.4307358,25.9784037 26.0307247,26.21075 C30.0464395,27.7816133 33.5147962,29.1403343 31.8727214,35.4894505 L31.8727214,35.4894505 Z" id="Combined-Shape" fill="#00A1FF"></path>
        <g id="+client" transform="translate(24.000000, 27.000000)">
            <circle id="Oval" fill="#FCFCFC" cx="7" cy="7" r="7"></circle>
            <polygon id="Star" fill="#00A1FF" points="7.27975432 9.75 4.63472069 11.1405765 5.13987716 8.19528824 3 6.10942353 5.95723751 5.67971176 7.27975432 3 8.60227114 5.67971176 11.5595086 6.10942353 9.41963148 8.19528824 9.92478796 11.1405765"></polygon>
        </g>
    </g>
</svg>