<?xml version="1.0" encoding="UTF-8" standalone="no"?>
<svg width="50px" height="50px" viewBox="0 0 50 50" version="1.1" xmlns="http://www.w3.org/2000/svg" xmlns:xlink="http://www.w3.org/1999/xlink">
    <!-- Generator: Sketch 39.1 (31720) - http://www.bohemiancoding.com/sketch -->
    <title>Combined Shape</title>
    <desc>Created with Sketch.</desc>
    <defs></defs>
    <g id="CRM_0722" stroke="none" stroke-width="1" fill="none" fill-rule="evenodd">
        <g id="CRM-page" transform="translate(-492.000000, -1248.000000)" fill="#00A1FF">
            <g id="Tab-Bar-Copy-3" transform="translate(0.000000, 1237.000000)">
                <path d="M533.85022,44.3767727 C533.85022,49.1932209 533.778989,51.4529647 533.316827,53.1322749 C533.276572,53.2785441 533.233214,53.4248354 533.186497,53.5719706 C532.414295,55.6812503 530.710622,57.3773689 528.547507,58.1609488 C528.444186,58.1924375 528.297255,58.2356254 528.150347,58.2757217 C526.463696,58.736066 525.198429,58.8070175 520.360811,58.8070175 L507.692052,58.8070175 C502.85316,58.8070175 501.5877,58.7360081 499.900785,58.2752664 C499.754466,58.2353029 499.608125,58.1922705 499.460946,58.1459195 C497.342241,57.3773689 495.638569,55.6812503 494.851162,53.5274333 C494.81965,53.4248354 494.776291,53.2785441 494.736036,53.1322749 C494.273874,51.4529647 494.202643,50.1932209 494.202643,45.3767727 L494.202643,32.7635782 C494.202643,27.9455404 494.273963,26.6854117 494.7367,25.0056061 C494.776764,24.8601701 494.819897,24.7147127 494.866351,24.5684266 C495.638553,22.4591432 497.342223,20.7629455 499.505485,19.9790081 C499.607982,19.9478006 499.754329,19.9047878 499.900653,19.8648422 C501.587625,19.4043096 503.161059,19 508,19 L519,19 C519.608243,19 520,18.6055754 520,18 C520,17.3944246 519.608243,17 519,17 L508,17 C502.943506,17 501.270704,17.2169003 499.318195,17.7499226 C499.144443,17.797356 498.970914,17.8483581 498.796801,17.9031648 C495.97705,18.9239332 493.79144,21.0999576 492.781363,23.86285 C492.71122,24.0803957 492.660073,24.2528732 492.6125,24.4255729 C492.076921,26.3698039 492,27.7288996 492,32.7635782 L492,45.3767727 C492,50.4096726 492.076821,51.768282 492.611695,53.7117969 C492.659492,53.885472 492.710901,54.0589229 492.76616,54.2329636 C493.791477,57.0404969 495.977179,59.2165075 498.752243,60.2217633 C498.970771,60.2916274 499.144305,60.342656 499.318063,60.3901138 C501.270629,60.9234117 502.63551,61 507.692052,61 L520.360811,61 C525.415931,61 526.780552,60.9234771 528.732686,60.3906737 C528.907131,60.3430615 529.081351,60.2918523 529.256164,60.2368071 C532.075684,59.2165075 534.261386,57.0404969 535.2715,54.2775009 C535.341963,54.0589229 535.393371,53.885472 535.441168,53.7117969 C535.976042,51.768282 536.052863,50.4096726 536.052863,45.3767727 L536.052863,33.8600694 C536.052863,33.2544941 535.559785,32.7635782 534.951542,32.7635782 C534.343299,32.7635782 533.85022,33.2544941 533.85022,33.8600694 L533.85022,44.3767727 Z M542,20 C542,15 538,11 533,11 C528,11 524,15 524,20 C524,25 528,29 533,29 C538,29 542,25 542,20 Z M526,20 C526,16 529,13 533,13 C537,13 540,16 540,20 C539.999999,24 537,27 533,27 C529,27 526,24 526,20 Z" id="Combined-Shape"></path>
            </g>
        </g>
    </g>
</svg>