<svg width="60px" height="60px" viewBox="0 0 60 60" version="1.1" xmlns="http://www.w3.org/2000/svg" xmlns:xlink="http://www.w3.org/1999/xlink">
    <!-- Generator: Sketch 44.1 (41455) - http://www.bohemiancoding.com/sketch -->
    <desc>Created with Sketch.</desc>
    <defs></defs>
    <g id="noah" stroke="none" stroke-width="1" fill="none" fill-rule="evenodd">
        <g id="Artboard" transform="translate(-88.000000, -219.000000)" fill-rule="nonzero" fill="#E2332F">
            <g id="pdf" transform="translate(30.000000, 219.000000)">
                <g id="合并形状" transform="translate(58.000000, 0.000000)">
                    <path d="M53.3333333,0 C57,0 60,3 60,6.66666667 L60,53.3333333 C60,57 57,60 53.3333333,60 L6.66666667,60 C3,60 0,57 0,53.3333333 L0,6.66666667 C0,3 3,0 6.66666667,0 L53.3333333,0 Z M28.6180529,26.9951613 C29.9738038,29.9709677 31.6932927,32.4177419 33.6773183,34.1040323 C34.0741234,34.4677419 34.5370627,34.8314516 35.0330691,35.1620968 C32.156232,35.691129 28.1881807,36.6169355 23.9886597,38.2370968 L23.6249216,38.3693548 C23.8894584,37.3774194 24.6169345,36.1870968 25.2782764,34.9306452 C26.7662956,32.0540323 27.8575097,29.4419355 28.6180529,26.9951613 Z M50.04553,39.5927419 C50.6407377,38.9975806 50.9383415,38.2370968 50.9714086,37.4104839 C51.0706099,36.7491935 50.9052744,36.1209677 50.5746035,35.5919355 C49.6156577,34.0379032 47.1356257,33.3104839 43.035306,33.3104839 C41.6795551,33.3104839 40.25767,33.3766129 38.7696508,33.5419355 C37.7115038,32.9467742 36.752558,32.2854839 35.8928136,31.6241935 C33.8095866,29.9048387 31.9247623,26.8959677 30.6020785,23.1596774 C30.6351456,23.0604839 30.6682127,22.8951613 30.7343469,22.6967742 C31.825561,18.2991935 32.850641,12.9758065 30.6682127,10.7935484 C30.1391392,10.2645161 29.4116632,10 28.65112,10 L27.8575097,10 C26.6340272,10 25.5428131,11.2895161 25.2452093,12.5459677 C24.0217268,16.9435484 24.7492028,19.3572581 25.9726853,23.3580645 L25.9726853,23.391129 C25.146008,26.3008065 24.087861,29.6733871 22.4014391,33.0790323 C21.2771579,35.2943548 20.2190109,37.3112903 19.2269981,39.0306452 C17.9043143,39.658871 16.9123015,40.1879032 16.2840267,40.6508065 C12.3159754,43.1306452 10.431151,45.9080645 10.067413,47.6604839 C9.93514458,48.2887097 10.0012788,48.8508065 10.2327484,49.4459677 L10.3319497,49.6112903 L11.9191702,50.6362903 C12.3159754,50.8677419 12.8450489,51 13.3741224,51 C16.052557,51 19.0947297,47.858871 23.1950494,40.8491935 C23.4265191,40.75 23.6249216,40.683871 23.7902571,40.6177419 C27.1961678,39.5266129 31.4287559,38.766129 37.1162961,38.1379032 C40.4230055,39.8241935 44.5233252,40.5846774 47.0364244,40.5846774 C48.4913765,40.5846774 49.4833894,40.2209677 50.04553,39.5927419 Z M48.6897791,37.2451613 C48.8551146,37.3774194 48.9212487,37.5096774 48.9873829,37.608871 C48.9543158,37.9395161 48.8551146,37.9725806 48.6897791,38.0387097 L48.5575107,38.0387097 C48.3591081,38.0717742 48.1607056,38.1048387 47.9292359,38.1048387 C46.4081496,38.1048387 44.0603859,37.4766129 41.646488,36.4185484 C41.9440918,36.0879032 42.1755615,36.0879032 42.4070312,36.0879032 C47.0364244,36.0879032 48.3591081,36.9145161 48.6897791,37.2451613 Z M18.3672536,42.0725806 C16.2178925,46.0072581 14.2669339,48.1895161 12.7789147,48.6854839 C12.9442502,47.4290323 14.4322694,45.2467742 16.7800331,43.0975806 C17.1107041,42.8330645 17.6728447,42.4693548 18.3672536,42.0725806 Z M28.3535161,19.225 C27.592973,16.2491935 27.5599059,13.8354839 28.1220465,12.4467742 C28.1881807,12.3145161 28.2873819,12.1491935 28.3535161,12.05 L28.8495225,12.2153226 C29.4116632,13.008871 29.4777973,13.9677419 29.1471264,15.8524194 L29.0479251,16.3814516 C28.8495225,17.108871 28.7503213,18.0346774 28.5188516,19.0927419 L28.3535161,19.225 Z" id="Combined-Shape"></path>
                </g>
            </g>
        </g>
    </g>
</svg>