<?xml version="1.0" encoding="UTF-8" standalone="no"?>
<svg width="52px" height="47px" viewBox="0 0 52 47" version="1.1" xmlns="http://www.w3.org/2000/svg" xmlns:xlink="http://www.w3.org/1999/xlink">
    <!-- Generator: Sketch 39.1 (31720) - http://www.bohemiancoding.com/sketch -->
    <title>Combined Shape</title>
    <desc>Created with Sketch.</desc>
    <defs></defs>
    <g id="CRM_0722" stroke="none" stroke-width="1" fill="none" fill-rule="evenodd">
        <g id="CRM-page" transform="translate(-208.000000, -1250.000000)" stroke="#00A1FF" fill="#00A1FF">
            <g id="Tab-Bar-Copy-3" transform="translate(0.000000, 1237.000000)">
                <path d="M215.0256,45.1228076 C217.493151,51.1769329 222.708293,55.7267543 229.064211,57.3391216 C240.098757,60.1384889 251.300499,53.4800633 254.091036,42.4724473 C254.137019,42.2921543 254.276217,42.1503385 254.455894,42.1007273 C254.635572,42.0511162 254.828244,42.1012985 254.960917,42.2322626 C255.093589,42.3632266 255.145968,42.5549394 255.098208,42.7347696 C252.902075,51.3976736 245.723022,57.4798581 237.389584,58.7480706 L237.389584,58.7480706 C234.611771,59.1707622 231.697379,59.0781778 228.802678,58.3438408 C222.127469,56.6504042 216.659458,51.88607 214.067972,45.5283644 C213.863496,45.5848751 213.651832,45.625849 213.434179,45.6497984 C211.245519,45.890559 209.267352,44.3202074 209.024581,42.149091 C208.781804,39.9779746 210.364936,38.0156551 212.553602,37.7748945 C214.742262,37.5340651 216.720429,39.1044855 216.9632,41.275533 C217.141564,42.8706078 216.334385,44.3529835 215.0256,45.1228076 Z M252.974396,27.877193 C250.506846,21.823135 245.291706,17.2733135 238.935786,15.6608784 C227.90124,12.8615111 216.699498,19.5200056 213.908964,30.5276216 C213.862374,30.7072379 213.723214,30.8482488 213.543956,30.8974835 C213.364698,30.9467182 213.172608,30.8966877 213.040118,30.7662571 C212.907628,30.6358264 212.85489,30.4448349 212.90179,30.2652993 C215.097922,21.6023953 222.276978,15.5201419 230.610413,14.2519294 L230.610413,14.2519294 C233.388226,13.8292378 236.302617,13.9218222 239.197319,14.6561592 C245.872509,16.3495904 251.340501,21.1139667 253.931997,27.4716436 C254.136482,27.4151288 254.348156,27.3741522 254.565819,27.3502016 C256.754482,27.1093721 258.732645,28.6797926 258.975419,30.850909 C259.218193,33.0220254 257.635061,34.9843449 255.446398,35.2251055 C253.257734,35.4659349 251.279571,33.8955145 251.036797,31.7243981 C250.858436,30.1293753 251.665613,28.6470141 252.974396,27.877193 Z M239.638958,25.765556 C239.449613,25.7836044 239.275401,25.9132018 239.20493,26.0884645 L233.974895,36.7659733 L228.74486,26.0884645 C228.652243,25.8795367 228.40744,25.748782 228.180624,25.7870832 C227.857367,25.8432952 227.656398,26.2537386 227.8117,26.5405365 L233.128541,37.4332832 L228.224027,37.4332832 C227.951319,37.4505049 227.718702,37.711725 227.735745,37.9822449 C227.752787,38.2527647 228.016423,38.4835367 228.289131,38.4665905 L233.454061,38.4665905 L233.454061,41.0498587 L228.289131,41.0498587 C228.013968,41.04297 227.760881,41.2935815 227.760881,41.5665124 C227.760881,41.8395121 228.013968,42.0870926 228.289131,42.083166 L233.454061,42.083166 L233.454061,46.6899944 C233.450173,46.9629942 233.699705,47.214019 233.974895,47.214019 C234.250085,47.214019 234.499619,46.9629942 234.495728,46.6899944 L234.495728,42.083166 L239.660659,42.083166 C239.935821,42.0900547 240.188909,41.8395121 240.188909,41.5665124 C240.188909,41.2935815 239.935821,41.046001 239.660659,41.0498587 L234.495728,41.0498587 L234.495728,38.4665905 L239.660659,38.4665905 C239.935821,38.4734792 240.188909,38.2229366 240.188909,37.9499368 C240.188909,37.6770059 239.935821,37.4294255 239.660659,37.4332832 L234.821249,37.4332832 L240.13809,26.5405365 C240.330242,26.2141905 240.018237,25.7297485 239.638958,25.765556 Z M254.679635,28.3680782 C256.308663,28.1888338 257.768641,29.3478602 257.949339,30.963815 C258.130036,32.5797699 256.96161,34.0280534 255.332582,34.2072978 C253.703553,34.3865421 252.243575,33.2274469 252.062877,31.6115609 C251.88218,29.9956061 253.050607,28.5473226 254.679635,28.3680782 Z M213.320359,44.6319218 C211.691338,44.8111662 210.231359,43.6521398 210.050658,42.0361161 C209.869963,40.4202301 211.038387,38.9719466 212.667415,38.7927022 C214.296443,38.6134579 215.756422,39.7724842 215.937123,41.3885079 C216.117818,43.0043939 214.949394,44.4526774 213.320359,44.6319218 L213.320359,44.6319218 Z" id="Combined-Shape"></path>
            </g>
        </g>
    </g>
</svg>