<svg width="46px" height="41px" viewBox="41 5 46 41" version="1.1" xmlns="http://www.w3.org/2000/svg" xmlns:xlink="http://www.w3.org/1999/xlink">
    <!-- Generator: Sketch 39.1 (31720) - http://www.bohemiancoding.com/sketch -->
    <desc>Created with Sketch.</desc>
    <defs></defs>
    <path d="M72.7076684,29.5662402 L85.2776265,40.4614851 C86.4238285,41.4551052 86.5488353,43.2056599 85.5552152,44.3518618 L85.1043635,44.8721107 C84.1107433,46.0183126 82.3601887,46.1433194 81.2139867,45.1496993 L68.6834347,34.2888152 L68.732217,34.2301816 C65.9144218,36.5009756 62.3312729,37.8602408 58.43058,37.8602408 C49.3556385,37.8597812 42,30.5041427 42,21.4296608 C42,12.3556385 49.3556385,5 58.43058,5 C67.5046023,5 74.8602408,12.3556385 74.8602408,21.4296608 C74.8602408,24.3900352 74.0774856,27.1674488 72.7076684,29.5662402 Z M58.639231,33.4362873 C65.2701059,33.4362873 70.6453979,28.0609953 70.6453979,21.4292012 C70.6453979,14.7983264 65.2701059,9.42303437 58.639231,9.42303437 C52.007437,9.42303437 46.632145,14.7983264 46.632145,21.4292012 C46.6326046,28.0609953 52.0078966,33.4362873 58.639231,33.4362873 Z" id="Combined-Shape" stroke="none" fill="#121317" fill-rule="evenodd" transform="translate(64.112973, 25.410215) scale(-1, 1) translate(-64.112973, -25.410215) "></path>
</svg>