<?xml version="1.0" encoding="UTF-8" standalone="no"?>
<svg width="40px" height="32px" viewBox="0 0 40 32" version="1.1" xmlns="http://www.w3.org/2000/svg" xmlns:xlink="http://www.w3.org/1999/xlink">
    <!-- Generator: Sketch 39 (31667) - http://www.bohemiancoding.com/sketch -->
    <title>Shape</title>
    <desc>Created with Sketch.</desc>
    <defs></defs>
    <g id="CRM_0722" stroke="none" stroke-width="1" fill="none" fill-rule="evenodd">
        <g id="生日关怀详情页" transform="translate(-206.000000, -382.000000)" fill="#9B9B97">
            <g id="Group-2" transform="translate(30.000000, 169.000000)">
                <path d="M209.860645,213 L182.350968,213 C178.985806,213 176,215.763364 176,219.182798 L176,233.168885 C176,236.589631 178.984516,239.242775 182.350968,239.242775 L195.905806,239.242775 L194.43871,243.991405 C194.310968,244.803619 195.117419,245.203822 195.823226,244.896781 L207.748387,239.240151 L209.860645,239.240151 C213.221935,239.240151 216,236.588318 216,233.166261 L216,219.181486 C216,215.764676 213.225806,213 209.860645,213 L209.860645,213 Z M201.52129,225.517804 C200.28129,229.408295 195.354839,232.682081 195.354839,232.682081 C195.354839,232.682081 190.615484,229.56444 189.330323,225.537486 C188.689032,223.191382 189.24129,221.79133 189.811613,221.026353 C190.495484,220.109168 191.619355,219.562006 192.811613,219.562006 C193.836129,219.562006 194.794839,220.00026 195.424516,220.719312 C196.050323,220.00026 197.005161,219.562006 198.023226,219.562006 C199.219355,219.562006 200.347097,220.11048 201.032258,221.028977 C201.607742,221.792642 202.156129,223.194006 201.52129,225.517804 L201.52129,225.517804 Z" id="Shape"></path>
            </g>
        </g>
    </g>
</svg>