
<svg width="42px" height="42px" viewBox="-1 0 42 42" version="1.1" xmlns="http://www.w3.org/2000/svg" xmlns:xlink="http://www.w3.org/1999/xlink">
    <!-- Generator: Sketch 41.2 (35397) - http://www.bohemiancoding.com/sketch -->
    <desc>Created with Sketch.</desc>
    <defs></defs>
    <g id="icon-call" stroke="none" stroke-width="1" fill="none" fill-rule="evenodd" transform="translate(0.000000, 1.000000)">
        <path d="M20,0 C31.0455556,0 40,8.95416667 40,20 C40,31.0458333 31.0455556,40 20,40 C8.95444444,40 0,31.0458333 0,20 C0,8.95444444 8.95444444,0 20,0 L20,0 Z" id="Shape" stroke="#C1C1C1"></path>
        <path d="M14.7239307,11.4404377 C15.9636529,12.8196044 17.0094863,14.3265488 17.0094863,14.3265488 C17.0094863,14.3265488 17.8711529,15.51016 17.109764,16.2765488 C16.6075418,16.7818266 15.9219863,17.9854377 16.2764307,18.4984933 C16.6308752,19.0115488 20.9986529,23.2207155 20.9986529,23.2207155 C20.9986529,23.2207155 21.4983752,23.65766 21.8319863,23.4984933 C22.1655974,23.3393266 23.7761529,22.3871044 23.7761529,22.3871044 C23.7761529,22.3871044 24.4417085,22.1623822 25.1650418,22.66516 C25.8953196,23.17266 28.1453196,24.6646044 28.1453196,24.6646044 C28.1453196,24.6646044 28.7858752,25.4709933 28.3367085,26.1829377 C27.8875418,26.8946044 26.4842085,28.3023822 26.4842085,28.3023822 C26.4842085,28.3023822 25.9261529,28.6798822 24.6628196,28.3804377 C23.4000418,28.0809933 20.4469863,27.3765488 16.399764,23.3315488 C12.657264,19.5904377 11.0114307,14.5557155 11.0114307,14.5557155 C11.0114307,14.5557155 10.8919863,13.6787711 11.4253196,12.8979377 C11.9589307,12.1171044 13.5367085,10.1193266 14.7239307,11.4404377 L14.7239307,11.4404377 Z" id="Shape" stroke="#C1C1C1"></path>
    </g>
</svg>