
<svg width="31px" height="38px" viewBox="513 238 31 38" version="1.1" xmlns="http://www.w3.org/2000/svg" xmlns:xlink="http://www.w3.org/1999/xlink">
    <!-- Generator: Sketch 41.2 (35397) - http://www.bohemiancoding.com/sketch -->
    <desc>Created with Sketch.</desc>
    <defs></defs>
    <g id="trash" stroke="none" stroke-width="1" fill="none" fill-rule="evenodd" transform="translate(513.000000, 238.000000)">
        <polygon id="Fill-6" fill="#4A4A4A" points="9.35408241 11.692603 11.692603 11.692603 11.692603 30.4007678 9.35408241 30.4007678"></polygon>
        <polygon id="Fill-7" fill="#4A4A4A" points="14.0311236 11.692603 16.3696442 11.692603 16.3696442 30.4007678 14.0311236 30.4007678"></polygon>
        <polygon id="Fill-8" fill="#4A4A4A" points="18.7081648 11.692603 21.0466854 11.692603 21.0466854 30.4007678 18.7081648 30.4007678"></polygon>
        <polygon id="Fill-9" fill="#4A4A4A" points="0 4.6770412 30.4007678 4.6770412 30.4007678 7.01556181 0 7.01556181"></polygon>
        <path d="M20.9648372,5.8463015 L18.790013,5.8463015 L18.790013,3.5077809 C18.790013,2.81791733 18.2287681,2.25667238 17.5389045,2.25667238 L12.8618633,2.25667238 C12.1719997,2.25667238 11.6107548,2.81791733 11.6107548,3.5077809 L11.6107548,5.8463015 L9.43593063,5.8463015 L9.43593063,3.5077809 C9.43593063,1.61825626 10.9735079,0.0818482211 12.8618633,0.0818482211 L17.5389045,0.0818482211 C19.4272599,0.0818482211 20.9648372,1.61825626 20.9648372,3.5077809 L20.9648372,5.8463015" id="Fill-10" fill="#4A4A4A"></path>
        <path d="M22.2159457,37.4163296 L8.18482211,37.4163296 C6.29763598,37.4163296 4.64547118,35.8857679 4.50165216,34.0044281 L2.34202838,5.93633455 L4.67353342,5.75626846 L6.8331572,33.8255312 C6.88460465,34.4931789 7.51600521,35.077809 8.18482211,35.077809 L22.2159457,35.077809 C22.8847626,35.077809 23.5161632,34.4931789 23.5676106,33.8267005 L25.7272344,5.75626846 L28.0587394,5.93633455 L25.8991157,34.0044281 C25.7552966,35.8857679 24.1031318,37.4163296 22.2159457,37.4163296" id="Fill-11" fill="#4A4A4A"></path>
    </g>
</svg>